<svg width="45" height="45" viewBox="0 0 45 45" fill="none" xmlns="http://www.w3.org/2000/svg">
<path d="M25.9425 13.3121V6.56051C25.9425 5.98726 25.4963 5.5414 24.9226 5.5414H7.01149C6.43782 5.5414 5.99163 5.98726 5.99163 6.56051V13.3121C5.99163 13.8854 6.43782 14.3312 7.01149 14.3312H24.9226C25.4963 14.3312 25.9425 13.8854 25.9425 13.3121ZM23.9028 12.293H8.03134V7.57962H23.9028V12.293Z" fill="white"/>
<path d="M12.7163 18.9809H8.15882C7.58515 18.9809 7.13897 19.4268 7.13897 20C7.13897 20.5732 7.58515 21.0191 8.15882 21.0191H12.6844C13.2581 21.0191 13.7043 20.5732 13.7043 20C13.7361 19.4268 13.29 18.9809 12.7163 18.9809Z" fill="white"/>
<path d="M12.7163 24.0446H8.15882C7.58515 24.0446 7.13897 24.4904 7.13897 25.0637C7.13897 25.6369 7.58515 26.0828 8.15882 26.0828H12.6844C13.2581 26.0828 13.7043 25.6369 13.7043 25.0637C13.7361 24.4904 13.29 24.0446 12.7163 24.0446Z" fill="white"/>
<path d="M12.7163 29.1083H8.15882C7.58515 29.1083 7.13897 29.5541 7.13897 30.1274C7.13897 30.7006 7.58515 31.1465 8.15882 31.1465H12.6844C13.2581 31.1465 13.7043 30.7006 13.7043 30.1274C13.7361 29.586 13.29 29.1083 12.7163 29.1083Z" fill="white"/>
<path d="M17.0188 36.0828H4.97178C3.34639 36.0828 2.0397 34.7771 2.0397 33.1529V4.96815C2.0397 3.34395 3.34639 2.03822 4.97178 2.03822H26.9942C28.6196 2.03822 29.9263 3.34395 29.9263 4.96815V19.6497C29.9263 20.2229 30.3725 20.6688 30.9461 20.6688C31.5198 20.6688 31.966 20.2229 31.966 19.6497V4.96815C31.9341 2.2293 29.7351 0 26.9942 0H4.97178C2.23093 0 0 2.2293 0 4.96815V33.1847C0 35.9236 2.23093 38.1529 4.97178 38.1529H17.0507C17.6243 38.1529 18.0705 37.707 18.0705 37.1338C18.0386 36.5287 17.5925 36.0828 17.0188 36.0828Z" fill="white"/>
<path d="M44.4273 29.5541L31.5836 23.5987C31.2967 23.4713 31.0099 23.4713 30.7231 23.5987L24.4765 26.4968V24.9682C24.4765 24.3949 24.0303 23.949 23.4566 23.949C22.8829 23.949 22.4368 24.3949 22.4368 24.9682V27.4204L17.8474 29.5541C17.3375 29.7771 17.1144 30.3822 17.3375 30.8917C17.5606 31.4013 18.1661 31.6242 18.676 31.4013L31.1055 25.6369L43.535 31.4013C43.6624 31.465 43.8218 31.4968 43.9493 31.4968C44.3317 31.4968 44.7142 31.2739 44.8735 30.8917C45.1603 30.3822 44.9372 29.7771 44.4273 29.5541Z" fill="white"/>
<path d="M40.7304 33.1847C40.1567 33.1847 39.7105 33.6306 39.7105 34.2038V42.9618H35.1849V36.3376C35.1849 35.7643 34.7387 35.3185 34.1651 35.3185H28.1097C27.536 35.3185 27.0898 35.7643 27.0898 36.3376V42.9618H22.5642V34.2038C22.5642 33.6306 22.118 33.1847 21.5444 33.1847C20.9707 33.1847 20.5245 33.6306 20.5245 34.2038V43.9809C20.5245 44.5541 20.9707 45 21.5444 45H40.7304C41.304 45 41.7502 44.5541 41.7502 43.9809V34.2038C41.7502 33.6306 41.304 33.1847 40.7304 33.1847ZM29.1295 42.9618V37.3567H33.1452V42.9618H29.1295Z" fill="white"/>
</svg>
