<svg width="45" height="45" viewBox="0 0 45 45" fill="none" xmlns="http://www.w3.org/2000/svg">
<path d="M6.20343 34.2362C6.20343 33.0291 6.67287 31.889 7.54471 31.0171C9.32191 29.2399 12.2057 29.2399 13.9829 31.0171C14.8547 31.889 15.3241 33.0291 15.3241 34.2362C15.3241 35.4434 14.8547 36.5835 13.9829 37.4553C13.111 38.3271 11.9709 38.7966 10.7638 38.7966C9.55663 38.7966 8.41654 38.3271 7.54471 37.4553C6.67287 36.5835 6.20343 35.4434 6.20343 34.2362ZM12.4404 35.9463C12.9098 35.4769 13.1446 34.8733 13.1446 34.2362C13.1446 33.5991 12.9098 32.9955 12.4404 32.5261C11.5015 31.5872 9.95901 31.5872 9.05365 32.5261C8.5842 32.9955 8.34948 33.5991 8.34948 34.2362C8.34948 34.8733 8.5842 35.4769 9.05365 35.9463C9.5231 36.4158 10.1267 36.6505 10.7638 36.6505C11.4009 36.6505 12.0045 36.3823 12.4404 35.9463Z" fill="white"/>
<path d="M22.8688 20.6222L24.7131 18.7779C25.1155 18.3756 25.8197 18.3756 26.2221 18.7779C26.4232 18.9791 26.5238 19.2474 26.5238 19.5492C26.5238 19.8174 26.4232 20.0857 26.2221 20.3204L24.3778 22.1647C23.9754 22.5671 23.2712 22.5671 22.8688 22.1647C22.4329 21.6952 22.4329 21.0246 22.8688 20.6222Z" fill="white"/>
<path fill-rule="evenodd" clip-rule="evenodd" d="M14.0164 45C10.2608 45 6.77347 43.5581 4.12444 40.9091C1.44188 38.2601 -1.5185e-06 34.7392 -1.35434e-06 30.9836C-1.19164e-06 27.2615 1.44188 23.7407 4.09091 21.0917C7.7459 17.4367 12.9769 16.0954 17.9061 17.5373L35.1416 0.30179C35.3428 0.100598 35.611 1.55661e-06 35.8793 1.56833e-06L43.927 1.92011e-06C44.5306 1.94649e-06 45 0.469451 45 1.07303L45 9.12072C45 9.38897 44.8994 9.69076 44.6982 9.89195L42.0492 12.541C41.848 12.7422 41.5797 12.8428 41.2779 12.8428L39.2325 12.8428L39.2325 14.8882C39.2325 15.1565 39.1319 15.4583 38.9307 15.6595L35.6781 18.9121C35.4769 19.1133 35.2086 19.2139 34.9069 19.2139L32.8614 19.2139L32.8614 21.2593C32.8614 21.5276 32.7608 21.8294 32.5596 22.0306L27.4963 27.0939C27.8651 28.3681 28.0328 29.6759 28.0328 30.9836C28.0328 34.7392 26.5909 38.2265 23.9419 40.8756C21.2593 43.5246 17.7384 45 14.0164 45ZM25.8532 30.9836C25.8532 29.6759 25.652 28.3681 25.2161 27.1274C25.082 26.725 25.1826 26.3227 25.4844 26.0209L30.7153 20.8234L30.7153 18.1408C30.7153 17.5373 31.1848 17.0678 31.7884 17.0678L34.4709 17.0678L37.0864 14.4523L37.0864 11.7697C37.0864 11.1662 37.5559 10.6967 38.1595 10.6967L40.842 10.6967L42.854 8.6848L42.854 3.65499L41.345 2.14605L36.3487 2.14605L18.9791 19.5156C18.6773 19.8174 18.275 19.918 17.8726 19.7839C13.5469 18.3085 8.85246 19.3815 5.63338 22.6341C3.38674 24.8808 2.14605 27.8651 2.14605 31.0171C2.14605 34.2027 3.38673 37.1535 5.63338 39.4002C7.88003 41.6468 10.8644 42.8875 14.0164 42.8875C17.2019 42.8875 20.1528 41.6468 22.3994 39.4002C24.646 37.1535 25.8532 34.1692 25.8532 30.9836ZM7.54471 31.0171C6.67287 31.889 6.20343 33.0291 6.20343 34.2362C6.20343 35.4434 6.67287 36.5835 7.54471 37.4553C8.41654 38.3271 9.55663 38.7966 10.7638 38.7966C11.9709 38.7966 13.111 38.3271 13.9829 37.4553C14.8547 36.5835 15.3241 35.4434 15.3241 34.2362C15.3241 33.0291 14.8547 31.889 13.9829 31.0171C12.2057 29.2399 9.32191 29.2399 7.54471 31.0171ZM24.7131 18.7779L22.8688 20.6222C22.4329 21.0246 22.4329 21.6952 22.8688 22.1647C23.2712 22.5671 23.9754 22.5671 24.3778 22.1647L26.2221 20.3204C26.4232 20.0857 26.5238 19.8174 26.5238 19.5492C26.5238 19.2474 26.4232 18.9791 26.2221 18.7779C25.8197 18.3756 25.1155 18.3756 24.7131 18.7779ZM13.1446 34.2362C13.1446 34.8733 12.9098 35.4769 12.4404 35.9463C12.0045 36.3823 11.4009 36.6505 10.7638 36.6505C10.1267 36.6505 9.5231 36.4158 9.05365 35.9463C8.5842 35.4769 8.34948 34.8733 8.34948 34.2362C8.34948 33.5991 8.5842 32.9955 9.05365 32.5261C9.95901 31.5872 11.5015 31.5872 12.4404 32.5261C12.9098 32.9955 13.1446 33.5991 13.1446 34.2362Z" fill="white"/>
<path d="M12.9536 6.02277C13.2055 6.02277 13.4574 5.9149 13.6373 5.73512L17.7037 1.63604C18.0636 1.27647 18.0636 0.665202 17.7037 0.269676C17.3439 -0.0898921 16.7321 -0.0898921 16.3363 0.269676L12.2699 4.40471C11.91 4.76428 11.91 5.37555 12.2699 5.77107C12.4498 5.95086 12.7017 6.02277 12.9536 6.02277Z" fill="white"/>
<path d="M12.9536 12.7827C13.2055 12.7827 13.4574 12.6748 13.6373 12.495L24.469 1.63604C24.8289 1.27647 24.8289 0.665202 24.469 0.269676C24.1092 -0.0898921 23.4974 -0.0898921 23.1016 0.269676L12.2699 11.1646C11.91 11.5242 11.91 12.1354 12.2699 12.531C12.4498 12.7107 12.7017 12.7827 12.9536 12.7827Z" fill="white"/>
<path d="M43.7853 26.7599C43.5334 26.7599 43.2815 26.8678 43.1015 27.0475L39.0352 31.1466C38.6753 31.5062 38.6753 32.1175 39.0352 32.513C39.395 32.8725 40.0068 32.8725 40.4026 32.513L44.469 28.3779C44.8289 28.0184 44.8289 27.4071 44.469 27.0116C44.2891 26.8318 44.0372 26.7599 43.7853 26.7599Z" fill="white"/>
<path d="M43.7853 20C43.5334 20 43.2815 20.1079 43.1015 20.2876L32.2699 31.1466C31.91 31.5062 31.91 32.1175 32.2699 32.513C32.6297 32.8725 33.2415 32.8725 33.6373 32.513L44.469 21.6181C44.8289 21.2585 44.8289 20.6472 44.469 20.2517C44.2891 20.0719 44.0372 20 43.7853 20Z" fill="white"/>
</svg>
