<svg width="50" height="56" viewBox="0 0 50 56" fill="none" xmlns="http://www.w3.org/2000/svg">
<path fill-rule="evenodd" clip-rule="evenodd" d="M6.98607 54.8897C6 55.5 5.52682 55.8564 4.65163 55.9665C3.77645 56.0765 2.88796 55.9142 2.11317 55.5026C1.33837 55.091 0.716931 54.4512 0.33767 53.6747C-0.0415905 52.8983 0.00145506 52 0.00148871 51.1793L0.00146912 5C0.00146912 4 -0.0261725 3.09525 0.355084 2.32193C0.736341 1.54862 1.35614 0.910805 2.12777 0.49774C2.89961 0.0871982 3.78468 -0.075585 4.65698 0.0325646C5.52927 0.140714 6 0.5 6.98607 1.10009L47.1134 24.0134C47.9594 24.3044 48.6917 24.8445 49.2088 25.5589C49.726 26.2733 50.0025 27.1267 50 28.0009C50.0001 28.8754 49.7228 29.7285 49.2061 30.4434C48.6893 31.1584 47.9584 31.7001 47.1134 31.9945L6.98607 54.8958V54.8897Z" fill="white"/>
</svg>
