<svg width="45" height="45" viewBox="0 0 45 45" fill="none" xmlns="http://www.w3.org/2000/svg">
<path d="M22.5 0C10.0874 0 0 10.0797 0 22.4829C0 31.4692 5.33435 39.5672 13.5752 43.1207C13.6778 43.1549 13.8146 43.1891 13.9514 43.1891C14.2933 43.1891 14.6353 42.9841 14.772 42.6424C14.9772 42.1982 14.772 41.6515 14.2933 41.4465C6.73632 38.2005 1.81231 30.7517 1.81231 22.4829C1.81231 11.0706 11.079 1.81093 22.5 1.81093C33.921 1.81093 43.1877 11.0706 43.1877 22.4829C43.1877 30.7517 38.2979 38.2005 30.7067 41.4806C30.2622 41.6857 30.0228 42.1982 30.228 42.6765C30.4331 43.1207 30.946 43.3599 31.4248 43.1549C39.6657 39.6014 45 31.4692 45 22.5171C45 10.0797 34.9126 0 22.5 0Z" fill="white"/>
<path d="M23.4233 32.0159V24.1913C24.0388 23.8497 24.4491 23.2346 24.4491 22.4829C24.4491 21.4237 23.5942 20.5353 22.5 20.5353C21.44 20.5353 20.5509 21.3895 20.5509 22.4829C20.5509 23.2346 20.9612 23.8497 21.5767 24.1913V32.0159L17.8153 35.7745C17.6444 35.9453 17.5418 36.1845 17.5418 36.4237V44.0774C17.5418 44.4533 17.747 44.7608 18.0889 44.9317C18.4309 45.0683 18.807 45 19.0805 44.7266L22.4316 41.3781L25.7827 44.7266C25.9536 44.8975 26.193 45 26.4324 45C26.535 45 26.6717 44.9658 26.7743 44.9317C27.1163 44.795 27.3214 44.4533 27.3214 44.0774V36.3895C27.3214 36.1503 27.2188 35.9112 27.0479 35.7403L23.4233 32.0159ZM25.6117 41.8907L23.1497 39.4305C22.9787 39.2597 22.7394 39.1572 22.5 39.1572C22.2606 39.1572 22.0213 39.2597 21.8503 39.4305L19.3883 41.8907V36.7995L22.5 33.6902L25.6117 36.7995V41.8907Z" fill="white"/>
<path d="M30.5357 33.7927C30.1254 34.1002 30.0228 34.6469 30.3305 35.0569C30.6383 35.467 31.1854 35.5695 31.5957 35.262C35.7333 32.3235 38.1953 27.5399 38.1953 22.4829C38.1953 13.8383 31.1512 6.79954 22.5 6.79954C13.8488 6.79954 6.80471 13.8383 6.80471 22.4829C6.80471 27.5399 9.26672 32.2893 13.4043 35.262C13.5752 35.3645 13.7462 35.4328 13.9172 35.4328C14.1907 35.4328 14.4643 35.2961 14.6695 35.0569C14.9772 34.6469 14.8746 34.0661 14.4643 33.7927C10.8055 31.1959 8.61702 26.959 8.61702 22.5171C8.61702 14.8633 14.8404 8.64465 22.5 8.64465C30.1596 8.64465 36.383 14.8633 36.383 22.5171C36.383 26.959 34.1945 31.1617 30.5357 33.7927Z" fill="white"/>
<path d="M22.5 13.6333C17.6102 13.6333 13.6436 17.5968 13.6436 22.4829C13.6436 25.3872 15.0798 28.0866 17.4392 29.7608C17.8495 30.0342 18.4308 29.9317 18.7044 29.5216C18.978 29.1116 18.8754 28.5308 18.465 28.2574C16.5843 26.9248 15.4559 24.7722 15.4559 22.4829C15.4559 18.5877 18.6018 15.4442 22.5 15.4442C26.3982 15.4442 29.5441 18.5877 29.5441 22.4829C29.5441 24.7722 28.4157 26.959 26.535 28.2574C26.1246 28.5308 26.022 29.1116 26.2956 29.5216C26.4666 29.7608 26.7401 29.8975 27.0479 29.8975C27.2188 29.8975 27.424 29.8292 27.5608 29.7267C29.9544 28.0524 31.3564 25.3531 31.3564 22.4487C31.3564 17.5968 27.3898 13.6333 22.5 13.6333Z" fill="white"/>
</svg>
