<svg width="27" height="19" viewBox="0 0 27 19" fill="none" xmlns="http://www.w3.org/2000/svg">
<path d="M24.6863 3.66106C24.5556 3.1392 24.2896 2.66104 23.9151 2.2749C23.5405 1.88875 23.0707 1.60829 22.553 1.46184C20.6617 1 13.0964 1 13.0964 1C13.0964 1 5.53103 1 3.6397 1.50582C3.12205 1.65227 2.65222 1.93274 2.27766 2.31888C1.9031 2.70503 1.63707 3.18318 1.50645 3.70505C1.16031 5.62448 0.990992 7.57162 1.00063 9.52199C0.98829 11.487 1.15762 13.449 1.50645 15.3829C1.65045 15.8886 1.92244 16.3485 2.29613 16.7184C2.66982 17.0882 3.13258 17.3554 3.6397 17.4942C5.53103 18 13.0964 18 13.0964 18C13.0964 18 20.6617 18 22.553 17.4942C23.0707 17.3477 23.5405 17.0673 23.9151 16.6811C24.2896 16.295 24.5556 15.8168 24.6863 15.295C25.0297 13.39 25.199 11.4577 25.1921 9.52199C25.2044 7.55694 25.0351 5.59495 24.6863 3.66106Z" stroke="white" stroke-width="2" stroke-linecap="round" stroke-linejoin="round"/>
<path d="M10.6223 13.1177L16.9451 9.52201L10.6223 5.92627V13.1177Z" stroke="white" stroke-width="2" stroke-linecap="round" stroke-linejoin="round"/>
</svg>
