<svg width="280" height="60" viewBox="0 0 280 60" fill="none" xmlns="http://www.w3.org/2000/svg">
<path d="M73.5956 34.4292C73.5956 37.1036 72.078 38.8541 68.651 38.8541C65.2729 38.8541 64 37.1522 64 34.4292V23.4884C64 23.2939 64.0979 23.1966 64.2937 23.1966H65.6156C65.8114 23.1966 65.9093 23.2939 65.9093 23.4884V34.3806C65.9093 36.2283 66.6437 37.3467 68.7489 37.3467C70.8051 37.3467 71.8332 36.4228 71.8332 34.3806V23.4884C71.8332 23.2939 71.9311 23.1966 72.1269 23.1966H73.4488C73.6446 23.1966 73.7425 23.2939 73.7425 23.4884V34.4292H73.5956Z" fill="black"/>
<path d="M86.4714 38.0275C86.5204 38.1734 86.5694 38.3192 86.5694 38.4165C86.5694 38.5137 86.4714 38.5624 86.2756 38.5624H84.8558C84.5621 38.5624 84.5131 38.4651 84.4642 38.3192L83.1913 33.9915H78.5893L77.4633 38.3192C77.4143 38.4651 77.3164 38.5624 77.0716 38.5624H75.6519C75.4071 38.5624 75.3581 38.5624 75.3581 38.4165C75.3581 38.3192 75.4071 38.1734 75.456 38.0275L79.9601 23.4884C80.0091 23.2452 80.058 23.2452 80.3028 23.2452H81.6247C81.8205 23.2452 81.8694 23.2452 81.9674 23.4884L86.4714 38.0275ZM81.4288 27.4757C81.233 26.7949 81.0372 25.9683 80.8903 25.3361H80.8413C80.7434 25.871 80.5476 26.8435 80.3518 27.4757L78.981 32.4355H82.7507L81.4288 27.4757Z" fill="black"/>
<path d="M92.8359 23.2452C94.5494 23.2452 97.34 23.4397 97.34 26.8922C97.34 29.2262 95.8713 30.1501 95.0879 30.5391C96.214 30.8795 97.8785 31.6089 97.8785 34.3319C97.8785 36.1797 96.9483 37.2495 96.4098 37.6871C95.5286 38.4165 94.2557 38.5137 92.4442 38.5137H89.1641C88.9683 38.5137 88.8704 38.4165 88.8704 38.222V23.4884C88.8704 23.2939 88.9683 23.1966 89.1641 23.1966H92.8359V23.2452ZM92.3463 30.0042C93.6682 30.0042 95.3327 29.7125 95.3327 27.0867C95.3327 25.093 94.1578 24.8013 92.8359 24.8013H90.7797V30.0042H92.3463ZM92.9338 37.0063C94.4025 37.0063 95.8713 36.4715 95.8713 34.2833C95.8713 32.0951 94.4025 31.5116 92.8359 31.5116H90.7797V37.0063H92.9338Z" fill="black"/>
<path d="M113.104 17.2643C115.454 17.2643 119.322 17.5074 119.322 22.3214C119.322 25.5793 117.266 26.8436 116.238 27.3784C117.853 27.8647 120.105 28.8858 120.105 32.6786C120.105 35.2558 118.783 36.7146 118.049 37.3953C116.825 38.4165 115.063 38.5624 112.566 38.5624H108.013C107.768 38.5624 107.621 38.4165 107.621 38.1734V17.6047C107.621 17.3615 107.768 17.2156 108.013 17.2156H113.104V17.2643ZM112.419 26.649C114.23 26.649 116.531 26.26 116.531 22.6131C116.531 19.8414 114.916 19.4524 113.055 19.4524H110.167V26.649H112.419ZM113.202 36.3742C115.258 36.3742 117.266 35.6448 117.266 32.5814C117.266 29.5666 115.209 28.74 113.055 28.74H110.167V36.3742H113.202Z" fill="black"/>
<path d="M133.422 33.6512C133.422 35.5962 133.52 35.8879 133.813 36.7632C133.96 37.1522 134.401 37.7357 134.401 37.9302C134.401 38.0761 134.254 38.1247 134.107 38.1734L132.883 38.9027C132.736 38.9514 132.687 39 132.638 39C132.149 39 131.61 37.3467 131.463 36.9091C131.072 37.2495 129.554 39 126.959 39C124.462 39 122.896 37.3953 122.896 34.6237C122.896 29.3721 129.162 29.2748 131.121 29.2262V28.1078C131.121 26.3087 130.533 25.2875 128.33 25.2875C126.225 25.2875 124.805 26.26 124.511 26.26C124.413 26.26 124.316 26.2114 124.316 26.1142L123.924 25.0444C123.875 24.8985 123.826 24.8013 123.826 24.6554C123.826 24.1205 126.714 23.2452 128.722 23.2452C132.345 23.2452 133.568 24.9958 133.568 27.6216V33.6512H133.422ZM131.023 31.1226C129.652 31.1712 125.148 31.1712 125.148 34.4292C125.148 35.6934 125.833 37.055 127.449 37.055C129.064 37.055 130.533 35.5476 131.023 35.1099V31.1226Z" fill="black"/>
<path d="M143.409 37.9789C143.458 38.0275 143.458 38.1247 143.458 38.1734C143.458 38.5137 141.94 38.9514 140.814 38.9514C139.296 38.9514 138.268 38.3192 137.877 37.444C137.436 36.4228 137.436 34.0402 137.436 32.9218V16.8266C137.436 16.6321 137.534 16.4863 137.632 16.4376L139.199 16.0486C139.443 16 139.345 16 139.59 16C139.786 16 139.786 16.2431 139.786 16.389V33.019C139.786 33.9915 139.835 35.5476 139.884 35.9366C139.933 36.277 140.227 37.0063 141.157 37.0063C141.989 37.0063 142.577 36.6173 142.772 36.6173C142.968 36.6173 142.968 36.7146 142.968 36.8118L143.409 37.9789Z" fill="black"/>
<path d="M153.494 37.3953C153.543 37.5412 153.543 37.5898 153.543 37.6871C153.543 38.0761 151.193 38.9514 149.48 38.9514C148.109 38.9514 146.983 38.4651 146.542 37.8816C145.612 36.9091 145.612 35.4989 145.612 34.3806V25.5307H143.262C143.066 25.5307 143.066 25.3362 143.066 25.1416V23.9746C143.066 23.7801 143.066 23.5856 143.262 23.5856H145.612V19.3066C145.612 19.1121 145.759 19.0148 145.955 18.9175L147.619 18.4313C147.717 18.4313 147.766 18.3827 147.815 18.3827C147.962 18.3827 147.962 18.5285 147.962 18.723V23.537H152.613C152.809 23.537 152.956 23.5856 152.956 23.7315C152.956 23.7801 152.907 23.8774 152.907 23.926L152.515 25.1416C152.466 25.2875 152.319 25.4334 152.123 25.4334H148.011V34.2833C148.011 35.5476 148.011 36.8118 149.871 36.8118C151.34 36.8118 152.613 35.9852 152.858 35.9852C153.005 35.9852 153.054 36.0825 153.054 36.1797L153.494 37.3953Z" fill="black"/>
<path d="M160.005 38.1734C160.005 38.4165 159.859 38.5624 159.614 38.5624H157.998C157.753 38.5624 157.607 38.4165 157.607 38.1734V25.5307H155.159C154.914 25.5307 154.767 25.3848 154.767 25.1416V23.9746C154.767 23.7315 154.914 23.5856 155.159 23.5856H159.565C159.908 23.5856 159.956 23.7801 159.956 24.0719V38.1734H160.005ZM158.684 20.0359C157.607 20.0359 156.774 19.2093 156.774 18.1395C156.774 17.0698 157.607 16.2431 158.684 16.2431C159.761 16.2431 160.593 17.1184 160.593 18.1395C160.593 19.1607 159.712 20.0359 158.684 20.0359Z" fill="black"/>
<path d="M174.252 37.1522C174.301 37.2495 174.35 37.2981 174.35 37.3953C174.35 37.7357 171.706 39 169.405 39C165.685 39 163.53 36.0825 163.53 31.5603C163.53 26.3573 166.027 23.1966 169.895 23.1966C172 23.1966 174.399 24.6554 174.399 25.1416C174.399 25.2389 174.35 25.2875 174.301 25.3848L173.567 26.6977C173.518 26.7949 173.469 26.8922 173.371 26.8922C173.224 26.8922 171.902 25.2875 170.042 25.2875C166.957 25.2875 166.076 27.5729 166.076 31.1226C166.076 33.9429 166.664 36.9577 169.699 36.9577C171.755 36.9577 173.371 35.6934 173.567 35.6934C173.665 35.6934 173.714 35.7907 173.762 35.8879L174.252 37.1522Z" fill="black"/>
<path d="M200.64 38.1734C200.64 38.4165 200.493 38.5624 200.248 38.5624H198.437C198.192 38.5624 198.045 38.4165 198.045 38.1734L197.556 22.1755C197.507 21.5433 197.556 20.7653 197.605 20.2304L197.556 20.1818C197.507 20.8626 197.409 21.6406 197.164 22.37L193.345 33.2622C193.199 33.5539 193.15 33.6025 192.856 33.6025H191.926C191.632 33.6025 191.534 33.5539 191.436 33.2622L187.813 22.4186C187.568 21.6892 187.471 20.9112 187.422 20.2304L187.373 20.2791C187.422 20.814 187.422 21.592 187.422 22.2241L186.932 38.222C186.932 38.4651 186.785 38.611 186.54 38.611H184.729C184.484 38.611 184.337 38.4651 184.337 38.222L185.512 17.6533C185.512 17.4101 185.659 17.2643 185.904 17.2643H187.96C188.205 17.2643 188.205 17.3129 188.303 17.556L192.024 28.3023C192.17 28.7886 192.317 29.5666 192.415 30.2474H192.464C192.611 29.6152 192.758 28.7886 192.905 28.3023L196.626 17.556C196.723 17.3129 196.723 17.2643 196.968 17.2643H199.024C199.269 17.2643 199.416 17.4101 199.416 17.6533L200.64 38.1734Z" fill="black"/>
<path d="M209.795 39C205.585 39 203.724 35.5962 203.724 31.1712C203.724 26.8922 205.536 23.1966 210.089 23.1966C214.397 23.1966 216.209 26.6004 216.209 31.0254C216.209 35.3531 214.348 39 209.795 39ZM213.614 30.9767C213.614 27.9133 212.782 25.1416 209.942 25.1416C207.102 25.1416 206.27 27.8161 206.27 30.8795C206.27 34.4292 207.102 37.055 209.991 37.055C212.782 37.055 213.614 34.5264 213.614 30.9767Z" fill="black"/>
<path d="M230.406 33.6512C230.406 35.0613 230.406 35.9852 230.749 36.7632C230.896 37.1522 231.336 37.7357 231.336 37.9302C231.336 38.0761 231.189 38.1247 231.043 38.1734L229.819 38.9027C229.672 38.9514 229.623 39 229.574 39C229.133 39 228.595 37.6385 228.448 37.1522C227.714 37.6871 226.147 39 223.846 39C220.517 39 218.95 35.2558 218.95 31.4144C218.95 26.9408 220.566 23.1966 224.189 23.1966C226.147 23.1966 227.175 23.7315 228.056 24.2664V16.8266C228.056 16.6321 228.154 16.4863 228.252 16.4376L229.77 16.0486C230.015 16 229.917 16 230.161 16C230.406 16 230.406 16.2431 230.406 16.389V33.6512ZM228.007 26.3087C227.028 25.7738 226 25.2875 224.433 25.2875C221.741 25.2875 221.496 28.3509 221.496 31.3657C221.496 33.9915 221.692 36.9577 224.238 36.9577C225.853 36.9577 227.224 35.5962 228.007 35.1099V26.3087Z" fill="black"/>
<path d="M243.037 23.9746C243.037 23.7801 243.135 23.6342 243.233 23.5856L244.8 23.1966C245.044 23.148 244.947 23.148 245.191 23.148C245.387 23.148 245.387 23.3911 245.387 23.537V34.6237C245.387 35.3531 245.436 36.0338 245.73 36.666C245.926 37.055 246.317 37.6385 246.317 37.833C246.317 37.9789 246.17 38.0275 246.024 38.0761L244.8 38.8055C244.653 38.8541 244.604 38.9027 244.555 38.9027C244.065 38.9027 243.723 37.7844 243.38 37.055C242.499 37.7844 240.834 38.9027 239.023 38.9027C234.812 38.9027 234.47 36.4715 234.47 34.2347V23.9746C234.47 23.7801 234.568 23.6342 234.665 23.5856L236.232 23.1966C236.477 23.148 236.379 23.148 236.624 23.148C236.82 23.148 236.82 23.3911 236.82 23.537V34.3319C236.82 35.6934 237.358 36.8605 239.365 36.8605C240.345 36.8605 242.352 35.8393 242.939 35.2558V23.9746H243.037Z" fill="black"/>
<path d="M255.472 37.9789C255.521 38.0275 255.521 38.1247 255.521 38.1734C255.521 38.5137 254.004 38.9514 252.878 38.9514C251.36 38.9514 250.332 38.3192 249.94 37.444C249.5 36.4228 249.5 34.0402 249.5 32.9218V16.8266C249.5 16.6321 249.597 16.4863 249.695 16.4376L251.262 16.0486C251.507 16 251.409 16 251.654 16C251.85 16 251.85 16.2431 251.85 16.389V33.019C251.85 33.9915 251.898 35.5476 251.947 35.9366C251.996 36.277 252.29 37.0063 253.22 37.0063C254.053 37.0063 254.64 36.6173 254.836 36.6173C255.032 36.6173 255.032 36.7146 255.032 36.8118L255.472 37.9789Z" fill="black"/>
<path d="M267.712 37.1522C267.761 37.2495 267.81 37.2981 267.81 37.3953C267.81 37.7357 265.166 39 262.865 39C258.704 38.9514 256.256 35.8393 256.256 31.074C256.256 26.5032 258.557 23.148 262.473 23.148C267.712 23.148 268.152 28.2051 268.152 30.8795C268.152 31.3171 268.152 31.5603 267.81 31.5603H258.801C258.801 33.4567 259.536 36.8605 263.11 36.8605C265.166 36.8605 266.782 35.5962 266.977 35.5962C267.075 35.5962 267.124 35.6934 267.173 35.7907L267.712 37.1522ZM265.607 29.6638C265.607 28.0592 265.068 25.1416 262.326 25.1416C259.438 25.1416 258.801 28.1078 258.801 29.6638H265.607Z" fill="black"/>
<path d="M278.923 25.6765C278.776 25.9197 278.727 26.0655 278.531 26.0655C278.335 26.0655 277.014 25.2389 275.349 25.2389C274.076 25.2389 273.048 25.871 273.048 27.2812C273.048 30.685 280 29.7611 280 34.5751C280 37.4926 277.699 39 275.006 39C273.489 39 270.257 38.1247 270.257 37.4926C270.257 37.3467 270.306 37.2495 270.404 37.1036L270.845 36.1311C270.943 35.9366 271.041 35.8393 271.139 35.8393C271.432 35.8393 273.048 36.9091 275.202 36.9091C276.573 36.9091 277.699 36.1797 277.699 34.6723C277.699 31.4144 270.747 32.1438 270.747 27.4757C270.747 24.9471 272.705 23.148 275.496 23.148C276.573 23.148 278.384 23.6342 279.217 24.0719C279.462 24.2178 279.559 24.315 279.559 24.4609C279.559 24.5581 279.461 24.6554 279.413 24.7526L278.923 25.6765Z" fill="black"/>
<path d="M42.4726 0.244999C30.7327 6.36997 22.6495 16.8016 22.5532 30.2957C22.457 44.5075 33.2346 55.3698 45.9368 59.9635C46.5623 60.2028 49.0642 59.1979 48.1982 58.9108C20.6768 48.9577 17.8861 14.409 44.1084 0.723513C45.6481 -0.137812 43.1462 -0.137812 42.4726 0.244999Z" fill="#00A6CC"/>
<path d="M20.0513 16.4188C12.2087 17.9022 1.33483 21.826 0.131973 31.0613C-1.35957 42.1628 10.0916 47.2829 19.3296 48.3356C19.9551 48.3835 22.5051 47.3786 21.1098 47.1872C13.4596 46.3259 5.37643 43.1677 3.01883 35.1765C0.0838589 25.1277 11.5351 19.0027 19.522 17.4715C20.6287 17.2801 21.9277 16.036 20.0513 16.4188Z" fill="#00A6CC"/>
<path d="M36.1696 18.8113C42.2801 20.5818 49.3529 23.8836 49.2567 31.2048C49.1604 38.0476 41.799 43.2634 36.6026 46.4216C35.0148 47.3786 37.3243 48.1442 38.3347 47.5222C44.6377 43.6462 51.903 37.9997 51.9992 29.9607C52.0954 22.5437 43.7235 18.8592 37.7574 17.1365C36.747 16.8016 34.5337 18.3328 36.1696 18.8113Z" fill="#00A6CC"/>
</svg>
