<svg width="52" height="60" viewBox="0 0 52 60" fill="none" xmlns="http://www.w3.org/2000/svg">
<path d="M42.4726 0.244999C30.7327 6.36997 22.6495 16.8016 22.5532 30.2957C22.457 44.5075 33.2346 55.3698 45.9368 59.9635C46.5623 60.2028 49.0642 59.1979 48.1982 58.9108C20.6768 48.9577 17.8861 14.409 44.1084 0.723513C45.6481 -0.137812 43.1462 -0.137812 42.4726 0.244999Z" fill="#00A6CC"/>
<path d="M20.0513 16.4188C12.2087 17.9022 1.33483 21.826 0.131973 31.0613C-1.35957 42.1628 10.0916 47.2829 19.3296 48.3356C19.9551 48.3835 22.5051 47.3786 21.1098 47.1872C13.4596 46.3259 5.37643 43.1677 3.01883 35.1765C0.0838589 25.1277 11.5351 19.0027 19.522 17.4715C20.6287 17.2801 21.9277 16.036 20.0513 16.4188Z" fill="#00A6CC"/>
<path d="M36.1696 18.8113C42.2801 20.5818 49.3529 23.8836 49.2567 31.2048C49.1604 38.0476 41.799 43.2634 36.6026 46.4216C35.0148 47.3786 37.3243 48.1442 38.3347 47.5222C44.6377 43.6462 51.903 37.9997 51.9992 29.9607C52.0954 22.5437 43.7235 18.8592 37.7574 17.1365C36.747 16.8016 34.5337 18.3328 36.1696 18.8113Z" fill="#00A6CC"/>
</svg>
