<svg width="73" height="20" viewBox="0 0 73 20" fill="none" xmlns="http://www.w3.org/2000/svg">
<path fill-rule="evenodd" clip-rule="evenodd" d="M24.0671 4.34318C24.0671 6.08723 24.0965 6.91742 24.8965 7.71929C25.1758 7.99924 25.5089 8.21865 25.8753 8.36407C26.2417 8.50949 26.6337 8.57784 27.0273 8.56493C27.4287 8.59364 27.8313 8.53158 28.2059 8.38328C28.5805 8.23497 28.9176 8.00417 29.1925 7.70771C29.5523 7.35134 29.7763 6.8786 29.8253 6.37232C29.8311 6.25554 29.8038 6.13951 29.7467 6.03778C29.6896 5.93604 29.6049 5.85279 29.5027 5.79774C29.4004 5.74269 29.2848 5.71811 29.1692 5.72686C29.0536 5.73561 28.9429 5.77734 28.8499 5.84718C28.7093 5.97604 28.6035 6.1388 28.5424 6.32019C28.4541 6.59023 28.2977 6.83244 28.0885 7.02301C27.8793 7.21358 27.6245 7.34596 27.3493 7.40712C27.074 7.46828 26.7877 7.45612 26.5185 7.37184C26.2493 7.28756 26.0064 7.13406 25.8139 6.92643C25.3788 6.45405 25.3207 5.92376 25.3207 4.34318C25.3207 2.7626 25.3788 2.23231 25.8139 1.75994C26.0065 1.55232 26.2494 1.39884 26.5186 1.3146C26.7878 1.23037 27.0742 1.21827 27.3495 1.27949C27.6247 1.34072 27.8795 1.47317 28.0886 1.66381C28.2978 1.85445 28.4542 2.09673 28.5424 2.36681C28.6035 2.54804 28.7093 2.7106 28.8499 2.83919C28.9567 2.92105 29.0877 2.96414 29.2218 2.96146C29.305 2.9641 29.3879 2.94886 29.4648 2.91676C29.5417 2.88467 29.611 2.83645 29.6681 2.77529C29.7251 2.71414 29.7687 2.64145 29.7958 2.56204C29.8229 2.48263 29.833 2.39832 29.8253 2.31469C29.7764 1.80859 29.5523 1.33605 29.1925 0.979946C28.9178 0.683271 28.581 0.452272 28.2064 0.303845C27.8319 0.155418 27.4293 0.0933163 27.0279 0.122082C26.6344 0.109209 26.2424 0.177576 25.876 0.32299C25.5096 0.468405 25.1765 0.6878 24.8971 0.967718C24.0965 1.77217 24.0671 2.60107 24.0671 4.34318ZM31.2595 8.25602C31.3186 8.34402 31.3981 8.41607 31.4912 8.46587C31.5843 8.51568 31.6881 8.54172 31.7934 8.54172C31.8988 8.54172 32.0026 8.51568 32.0956 8.46587C32.1887 8.41607 32.2683 8.34402 32.3274 8.25602C32.4133 8.07863 32.4457 7.87969 32.4205 7.68389V4.99639H33.988L35.7105 8.02884C35.7528 8.16657 35.8342 8.28876 35.9446 8.38028C36.0551 8.47179 36.1897 8.52861 36.3318 8.54369C36.4499 8.54595 36.5664 8.51569 36.6687 8.45616C36.7629 8.4074 36.8417 8.33293 36.8961 8.24123C36.9504 8.14953 36.9782 8.04428 36.9762 7.93746C36.9577 7.74967 36.8896 7.57032 36.779 7.4181L35.299 4.82135C35.781 4.699 36.2067 4.41337 36.505 4.01225C36.8032 3.61113 36.9558 3.11885 36.9373 2.6178C36.9447 2.28304 36.8821 1.95046 36.7535 1.64176C36.625 1.33306 36.4333 1.05519 36.191 0.826293C35.9488 0.597393 35.6614 0.422609 35.3476 0.313353C35.0338 0.204096 34.7008 0.162824 34.3701 0.19223H31.9325C31.8277 0.17927 31.7214 0.188609 31.6204 0.219647C31.5194 0.250684 31.426 0.30273 31.3462 0.372427C31.2768 0.452253 31.2249 0.545978 31.1939 0.647458C31.1629 0.748939 31.1535 0.855884 31.1663 0.961283V7.68518C31.1415 7.88055 31.1739 8.07898 31.2595 8.25602ZM34.2776 1.31395C34.4584 1.2946 34.6412 1.3146 34.8136 1.37262C34.986 1.43064 35.1441 1.52532 35.2772 1.65027C35.4102 1.77521 35.5151 1.92751 35.5848 2.09686C35.6545 2.26622 35.6873 2.4487 35.6811 2.63196C35.6862 2.81391 35.6524 2.99482 35.582 3.1624C35.5116 3.32998 35.4062 3.48029 35.273 3.6031C35.1398 3.7259 34.982 3.81832 34.8102 3.87407C34.6385 3.92982 34.4568 3.94758 34.2776 3.92616H32.4199V1.31395H34.2776ZM39.5765 1.31395H42.8939C43.0682 1.33378 43.2446 1.30553 43.4042 1.23222C43.4853 1.18292 43.5518 1.11252 43.5967 1.02839C43.6416 0.944269 43.6633 0.849517 43.6594 0.754057C43.6633 0.658597 43.6416 0.563845 43.5967 0.479722C43.5518 0.395598 43.4853 0.325198 43.4042 0.275893C43.2445 0.202612 43.0682 0.174366 42.8939 0.194161H39.0891C38.9843 0.1812 38.878 0.19054 38.777 0.221577C38.676 0.252615 38.5826 0.30466 38.5028 0.374357C38.4334 0.454205 38.3815 0.547933 38.3505 0.649407C38.3195 0.750882 38.3101 0.857816 38.3229 0.963213V7.72701C38.3101 7.83241 38.3195 7.93936 38.3505 8.04084C38.3815 8.14232 38.4334 8.23604 38.5028 8.31587C38.5825 8.38571 38.6759 8.4379 38.7769 8.46905C38.8779 8.5002 38.9843 8.50962 39.0891 8.49671H42.897C43.0714 8.51621 43.2477 8.48798 43.4074 8.41498C43.4858 8.3628 43.5502 8.2918 43.5948 8.20835C43.6393 8.12489 43.6626 8.03159 43.6626 7.93681C43.6626 7.84203 43.6393 7.74873 43.5948 7.66528C43.5502 7.58182 43.4858 7.51083 43.4074 7.45865C43.2477 7.38549 43.0714 7.35725 42.897 7.37692H39.5797V4.86704H42.3082C42.4825 4.88674 42.6589 4.8585 42.8186 4.78531C42.8997 4.73595 42.9661 4.66554 43.011 4.58143C43.0559 4.49732 43.0775 4.40259 43.0738 4.30714C43.0776 4.21178 43.0559 4.11714 43.011 4.03312C42.9661 3.94911 42.8996 3.87882 42.8186 3.82962C42.659 3.75597 42.4825 3.7277 42.3082 3.74789H39.5765V1.31395ZM49.2173 5.75451H46.5704L47.8941 2.12162L49.2173 5.75451ZM49.6064 6.82732L50.0185 7.94261C50.0611 8.12538 50.1561 8.29146 50.2916 8.42013C50.388 8.50022 50.5092 8.54371 50.6342 8.54305C50.719 8.54388 50.8032 8.52782 50.8819 8.4958C50.9606 8.46377 51.0323 8.41641 51.0929 8.35641C51.188 8.23994 51.2433 8.09564 51.2507 7.94492C51.258 7.79421 51.217 7.64512 51.1337 7.51979L48.6023 0.751483C48.5574 0.58826 48.4715 0.439506 48.3528 0.319655C48.2262 0.206948 48.0631 0.144758 47.8941 0.144758C47.7252 0.144758 47.5621 0.206948 47.4355 0.319655C47.3167 0.439434 47.2308 0.588214 47.186 0.751483L44.6565 7.52172C44.5732 7.64705 44.5322 7.79614 44.5396 7.94685C44.5469 8.09757 44.6023 8.24187 44.6974 8.35834C44.8197 8.47939 44.9847 8.54651 45.156 8.54498C45.2809 8.54553 45.4021 8.50205 45.4986 8.42206C45.6339 8.29329 45.7286 8.12722 45.771 7.94454L46.1831 6.83054H49.6077L49.6064 6.82732ZM56.6763 0.751483C56.6801 0.656023 56.6585 0.561271 56.6136 0.477147C56.5687 0.393024 56.5022 0.322624 56.4211 0.273319C56.2614 0.200038 56.085 0.171792 55.9107 0.191587H51.5464C51.3721 0.171792 51.1958 0.200038 51.0361 0.273319C50.955 0.322624 50.8885 0.393024 50.8436 0.477147C50.7987 0.561271 50.777 0.656023 50.7809 0.751483C50.777 0.846942 50.7987 0.941694 50.8436 1.02582C50.8885 1.10994 50.955 1.18034 51.0361 1.22965C51.1955 1.30384 51.3719 1.33298 51.5464 1.31395H53.1024V7.68518C53.0773 7.88098 53.1097 8.07991 53.1956 8.25731C53.2547 8.3453 53.3342 8.41736 53.4273 8.46716C53.5204 8.51697 53.6242 8.54301 53.7295 8.54301C53.8349 8.54301 53.9387 8.51697 54.0317 8.46716C54.1248 8.41736 54.2044 8.3453 54.2635 8.25731C54.3483 8.07958 54.3796 7.88066 54.3534 7.68518V1.31395H55.9101C56.0844 1.33378 56.2608 1.30553 56.4204 1.23222C56.5021 1.18284 56.569 1.11208 56.6141 1.02744C56.6591 0.942801 56.6806 0.847444 56.6763 0.751483ZM59.0545 7.68518V1.00183C59.0797 0.806451 59.0473 0.60794 58.9614 0.43099C58.9023 0.342991 58.8227 0.270939 58.7296 0.221133C58.6366 0.171328 58.5328 0.145286 58.4274 0.145286C58.3221 0.145286 58.2183 0.171328 58.1252 0.221133C58.0321 0.270939 57.9526 0.342991 57.8935 0.43099C57.8075 0.60813 57.7751 0.806884 57.8003 1.00247V7.68518C57.7751 7.88098 57.8075 8.07994 57.8935 8.25731C57.9526 8.3453 58.0321 8.41736 58.1252 8.46716C58.2183 8.51697 58.3221 8.54301 58.4274 8.54301C58.5328 8.54301 58.6366 8.51697 58.7296 8.46716C58.8227 8.41736 58.9023 8.3453 58.9614 8.25731C59.0474 8.07994 59.0798 7.88098 59.0545 7.68518ZM66.0721 1.13697C66.146 0.970583 66.1749 0.78736 66.1556 0.606038C66.124 0.470244 66.0462 0.349879 65.9359 0.265744C65.8256 0.18161 65.6896 0.13899 65.5515 0.14525C65.4866 0.14279 65.4219 0.153357 65.3611 0.176337C65.3004 0.199316 65.2447 0.234251 65.1974 0.279111C65.0698 0.411341 64.9814 0.57698 64.9422 0.757275L63.147 6.29703L61.3537 0.757275C61.3144 0.57704 61.2261 0.411443 61.0986 0.279111C61.0512 0.234172 60.9954 0.199193 60.9345 0.176211C60.8736 0.153229 60.8088 0.142704 60.7439 0.14525C60.6058 0.139018 60.4699 0.18166 60.3597 0.265803C60.2495 0.349945 60.1719 0.470296 60.1404 0.606038C60.1204 0.786919 60.1484 0.969895 60.2214 1.13633L62.4619 7.90077C62.5049 8.07958 62.5928 8.24423 62.717 8.37894C62.8359 8.48415 62.9886 8.54217 63.1467 8.54217C63.3048 8.54217 63.4575 8.48415 63.5764 8.37894C63.7007 8.24425 63.7885 8.07959 63.8316 7.90077L66.0721 1.13697ZM68.5046 1.31395H71.822C71.9963 1.33365 72.1726 1.30541 72.3323 1.23222C72.4134 1.18292 72.4799 1.11252 72.5248 1.02839C72.5697 0.944269 72.5914 0.849517 72.5875 0.754057C72.5913 0.658608 72.5696 0.563882 72.5247 0.479771C72.4798 0.39566 72.4134 0.32525 72.3323 0.275893C72.1726 0.202736 71.9963 0.174496 71.822 0.194161H68.014C67.9092 0.18116 67.8029 0.19048 67.7019 0.221519C67.6009 0.252559 67.5075 0.304626 67.4277 0.374357C67.3583 0.454183 67.3064 0.547908 67.2754 0.649389C67.2444 0.75087 67.235 0.857814 67.2478 0.963213V7.72701C67.2275 7.83286 67.2332 7.94211 67.2645 8.0452C67.2958 8.14828 67.3517 8.24205 67.4272 8.31828C67.5028 8.39452 67.5958 8.45088 67.698 8.48244C67.8001 8.514 67.9084 8.51978 68.0134 8.49928H71.8213C71.9956 8.51863 72.1719 8.4904 72.3317 8.41755C72.4101 8.36537 72.4745 8.29438 72.519 8.21092C72.5636 8.12747 72.5869 8.03417 72.5869 7.93939C72.5869 7.84461 72.5636 7.75131 72.519 7.66785C72.4745 7.5844 72.4101 7.5134 72.3317 7.46122C72.1719 7.38822 71.9956 7.35999 71.8213 7.37949H68.5039V4.86961H71.2325C71.4068 4.88915 71.5831 4.86092 71.7429 4.78788C71.8213 4.73578 71.8857 4.66484 71.9302 4.58144C71.9748 4.49804 71.9981 4.40478 71.9981 4.31004C71.9981 4.2153 71.9748 4.12204 71.9302 4.03864C71.8857 3.95523 71.8213 3.8843 71.7429 3.8322C71.5832 3.7587 71.4068 3.73044 71.2325 3.75047H68.5039V1.31395H68.5046ZM24.4729 19.6554C24.5332 19.745 24.6143 19.8183 24.7091 19.869C24.804 19.9197 24.9097 19.9462 25.0171 19.9462C25.1244 19.9462 25.2301 19.9197 25.325 19.869C25.4198 19.8183 25.5009 19.745 25.5612 19.6554C25.6484 19.4747 25.6812 19.2722 25.6556 19.0729V16.5566H27.5695C27.9164 16.5788 28.2641 16.5291 28.5912 16.4104C28.9183 16.2918 29.2178 16.1068 29.4712 15.8668C29.7247 15.6269 29.9267 15.337 30.0648 15.0153C30.2029 14.6935 30.2741 14.3466 30.2741 13.9959C30.2741 13.6453 30.2029 13.2984 30.0648 12.9766C29.9267 12.6548 29.7247 12.365 29.4712 12.125C29.2178 11.8851 28.9183 11.7 28.5912 11.5814C28.2641 11.4628 27.9164 11.413 27.5695 11.4352H25.1587C25.0519 11.4219 24.9435 11.4315 24.8406 11.4633C24.7377 11.4951 24.6426 11.5485 24.5616 11.6199C24.4907 11.7011 24.4377 11.7966 24.406 11.9C24.3744 12.0033 24.3647 12.1123 24.3778 12.2197V19.0697C24.3525 19.2691 24.3855 19.4715 24.4729 19.6522V19.6554ZM25.6556 12.5762H27.5006C27.6951 12.5542 27.892 12.5754 28.0775 12.6381C28.263 12.7009 28.4327 12.8038 28.5747 12.9396C28.7167 13.0755 28.8276 13.2409 28.8996 13.4245C28.9716 13.6081 29.003 13.8053 28.9915 14.0024C29.0014 14.1986 28.9689 14.3946 28.8962 14.5769C28.8236 14.7592 28.7125 14.9234 28.5706 15.0581C28.4288 15.1928 28.2597 15.2947 28.0749 15.3569C27.8901 15.4191 27.6942 15.44 27.5006 15.4182H25.6556V12.5762ZM34.994 17.103H32.2968L33.6454 13.4013L34.994 17.103ZM35.3902 18.1971L35.81 19.3336C35.8535 19.5197 35.9502 19.6889 36.0881 19.8201C36.1865 19.9015 36.3099 19.9456 36.4371 19.945C36.5238 19.9454 36.6098 19.9286 36.69 19.8955C36.7703 19.8624 36.8432 19.8136 36.9047 19.7519C37.0011 19.6335 37.0571 19.487 37.0646 19.3341C37.0721 19.1811 37.0306 19.0297 36.9462 18.9024L34.3669 12.0054C34.321 11.8391 34.2331 11.6876 34.1118 11.5658C33.9827 11.451 33.8165 11.3876 33.6444 11.3876C33.4724 11.3876 33.3062 11.451 33.1771 11.5658C33.0558 11.6876 32.9679 11.8391 32.922 12.0054L30.3453 18.9037C30.2609 19.031 30.2194 19.1824 30.2269 19.3354C30.2343 19.4883 30.2904 19.6348 30.3867 19.7532C30.4481 19.8148 30.521 19.8636 30.6011 19.8967C30.6813 19.9298 30.7671 19.9467 30.8537 19.9463C30.9809 19.947 31.1043 19.9028 31.2027 19.8214C31.3408 19.6898 31.4375 19.5202 31.4808 19.3336L31.8974 18.1964H35.387L35.3902 18.1971ZM38.2923 19.6528C38.3526 19.7424 38.4337 19.8157 38.5285 19.8664C38.6234 19.9171 38.7291 19.9436 38.8365 19.9436C38.9438 19.9436 39.0495 19.9171 39.1444 19.8664C39.2392 19.8157 39.3203 19.7424 39.3806 19.6528C39.4678 19.4721 39.5006 19.2696 39.475 19.0704V16.3307H41.0699L42.8269 19.4198C42.8703 19.5597 42.9533 19.6838 43.0658 19.7766C43.1783 19.8695 43.3152 19.9271 43.4597 19.9424C43.58 19.9447 43.6986 19.914 43.8029 19.8536C43.8989 19.8037 43.9791 19.7277 44.0345 19.6342C44.0898 19.5407 44.1181 19.4335 44.1162 19.3246C44.0973 19.1335 44.0279 18.951 43.9152 18.7962L42.4071 16.1525C42.8981 16.0275 43.3317 15.7363 43.6354 15.3274C43.9391 14.9186 44.0944 14.417 44.0753 13.9065C44.0831 13.5653 44.0195 13.2263 43.8885 12.9117C43.7576 12.5971 43.5623 12.3139 43.3154 12.0806C43.0685 11.8473 42.7757 11.6691 42.4559 11.5578C42.1361 11.4465 41.7967 11.4045 41.4597 11.4346H38.9787C38.872 11.4137 38.7619 11.4196 38.6579 11.4516C38.5539 11.4836 38.4593 11.5408 38.3823 11.6182C38.3053 11.6955 38.2482 11.7907 38.2161 11.8955C38.1839 12.0002 38.1777 12.1113 38.1979 12.2191V19.0697C38.1723 19.269 38.2051 19.4715 38.2923 19.6522V19.6528ZM41.3679 12.5737C41.5521 12.5537 41.7385 12.574 41.9143 12.633C42.0901 12.692 42.2513 12.7883 42.3871 12.9156C42.5228 13.0429 42.6298 13.1981 42.701 13.3707C42.7721 13.5433 42.8057 13.7293 42.7994 13.9161C42.8047 14.1017 42.7702 14.2861 42.6984 14.457C42.6265 14.6279 42.519 14.7812 42.3831 14.9063C42.2473 15.0315 42.0862 15.1256 41.911 15.1823C41.7358 15.239 41.5506 15.2569 41.3679 15.2348H39.475V12.5762H41.3679V12.5737ZM50.8587 12.0028C50.8627 11.9055 50.8406 11.8089 50.7948 11.7232C50.749 11.6375 50.6812 11.5658 50.5984 11.5156C50.4356 11.4408 50.2556 11.4121 50.0779 11.4326H45.63C45.4523 11.4121 45.2723 11.4408 45.1095 11.5156C45.0294 11.5687 44.9638 11.641 44.9183 11.7261C44.8728 11.8111 44.849 11.9062 44.849 12.0028C44.849 12.0994 44.8728 12.1945 44.9183 12.2796C44.9638 12.3646 45.0294 12.4369 45.1095 12.49C45.2723 12.5649 45.4522 12.5938 45.63 12.5737H47.2154V19.0697C47.1898 19.269 47.2226 19.4715 47.3098 19.6522C47.3701 19.7417 47.4512 19.8151 47.546 19.8658C47.6409 19.9165 47.7466 19.943 47.854 19.943C47.9613 19.943 48.067 19.9165 48.1619 19.8658C48.2567 19.8151 48.3378 19.7417 48.3981 19.6522C48.4853 19.4715 48.5181 19.269 48.4926 19.0697V12.5762H50.0791C50.257 12.5964 50.4369 12.5675 50.5997 12.4926C50.6822 12.4422 50.7497 12.3704 50.7953 12.2847C50.8408 12.199 50.8627 12.1025 50.8587 12.0054V12.0028ZM53.283 13.9515L56.9384 19.3761C57.0016 19.5285 57.104 19.6612 57.235 19.7604C57.366 19.8596 57.5208 19.9218 57.6836 19.9405C57.7738 19.9419 57.8633 19.9248 57.9467 19.89C58.0301 19.8553 58.1056 19.8037 58.1684 19.7384C58.2391 19.6548 58.2919 19.5573 58.3234 19.452C58.3549 19.3468 58.3645 19.2361 58.3515 19.127V12.2609C58.3764 12.0627 58.3436 11.8614 58.2571 11.6817C58.1969 11.592 58.1158 11.5185 58.021 11.4677C57.9261 11.4169 57.8203 11.3904 57.7129 11.3904C57.6055 11.3904 57.4998 11.4169 57.4049 11.4677C57.31 11.5185 57.2289 11.592 57.1687 11.6817C57.082 11.8613 57.0492 12.0627 57.0743 12.2609V17.3765L53.4188 11.952C53.3555 11.7996 53.2531 11.6671 53.1221 11.5679C52.9912 11.4687 52.8364 11.4065 52.6737 11.3876C52.5835 11.3862 52.494 11.4034 52.4106 11.4381C52.3272 11.4729 52.2518 11.5244 52.1889 11.5897C52.1179 11.6745 52.065 11.773 52.0334 11.8793C52.0018 11.9856 51.9922 12.0973 52.0051 12.2075V19.0697C51.9796 19.269 52.0124 19.4715 52.0996 19.6522C52.1598 19.7417 52.241 19.8151 52.3358 19.8658C52.4307 19.9165 52.5364 19.943 52.6437 19.943C52.7511 19.943 52.8568 19.9165 52.9516 19.8658C53.0465 19.8151 53.1276 19.7417 53.1879 19.6522C53.275 19.4715 53.3079 19.269 53.2823 19.0697V13.9541L53.283 13.9515ZM61.3601 12.5762H64.7413C64.9191 12.5963 65.099 12.5674 65.2619 12.4926C65.3419 12.4395 65.4076 12.3672 65.453 12.2821C65.4985 12.1971 65.5223 12.102 65.5223 12.0054C65.5223 11.9088 65.4985 11.8137 65.453 11.7286C65.4076 11.6436 65.3419 11.5713 65.2619 11.5182C65.099 11.4435 64.9191 11.4148 64.7413 11.4352H60.8606C60.7539 11.4144 60.6437 11.4202 60.5398 11.4522C60.4358 11.4842 60.3412 11.5414 60.2642 11.6188C60.1872 11.6962 60.1301 11.7914 60.0979 11.8961C60.0658 12.0009 60.0595 12.112 60.0797 12.2197V19.1116C60.0667 19.219 60.0763 19.3279 60.108 19.4313C60.1397 19.5347 60.1926 19.6301 60.2635 19.7114C60.3446 19.7826 60.4397 19.8359 60.5426 19.8676C60.6455 19.8993 60.7538 19.9088 60.8606 19.8954H64.7406C64.9185 19.9155 65.0984 19.8866 65.2612 19.8118C65.3412 19.7587 65.4069 19.6864 65.4524 19.6013C65.4978 19.5163 65.5216 19.4212 65.5216 19.3246C65.5216 19.228 65.4978 19.1329 65.4524 19.0478C65.4069 18.9628 65.3412 18.8905 65.2612 18.8374C65.0983 18.7627 64.9185 18.7338 64.7406 18.7537H61.3595V16.2001H64.1391C64.3169 16.2201 64.4968 16.1912 64.6596 16.1164C64.7397 16.0634 64.8053 15.9911 64.8508 15.906C64.8963 15.821 64.9201 15.7259 64.9201 15.6293C64.9201 15.5327 64.8963 15.4376 64.8508 15.3525C64.8053 15.2675 64.7397 15.1952 64.6596 15.1421C64.4969 15.067 64.3169 15.0381 64.1391 15.0584H61.3601V12.5762ZM66.902 19.6554C66.9623 19.745 67.0434 19.8183 67.1383 19.869C67.2332 19.9197 67.3389 19.9462 67.4462 19.9462C67.5536 19.9462 67.6593 19.9197 67.7541 19.869C67.849 19.8183 67.9301 19.745 67.9904 19.6554C68.0777 19.4747 68.1108 19.2723 68.0854 19.0729V16.3307H69.6803L71.4366 19.4198C71.4801 19.5597 71.5632 19.6837 71.6756 19.7765C71.7881 19.8694 71.925 19.927 72.0695 19.9424C72.1898 19.9447 72.3084 19.914 72.4127 19.8536C72.509 19.8042 72.5895 19.7284 72.645 19.635C72.7006 19.5415 72.7288 19.4342 72.7266 19.3252C72.7078 19.1341 72.6384 18.9516 72.5256 18.7969L71.0175 16.1531C71.5085 16.0282 71.9422 15.7369 72.2458 15.3281C72.5495 14.9192 72.7048 14.4176 72.6857 13.9071C72.6934 13.566 72.6297 13.2271 72.4987 12.9125C72.3677 12.5979 72.1724 12.3147 71.9256 12.0814C71.6788 11.8482 71.3859 11.67 71.0662 11.5587C70.7465 11.4473 70.4071 11.4052 70.0701 11.4352H67.5859C67.479 11.4218 67.3705 11.4314 67.2675 11.4632C67.1645 11.495 67.0693 11.5484 66.9882 11.6199C66.9175 11.7012 66.8646 11.7967 66.833 11.9C66.8015 12.0034 66.792 12.1123 66.8051 12.2197V19.0697C66.7803 19.2693 66.814 19.4717 66.902 19.6522V19.6554ZM69.9776 12.5762C70.1619 12.5563 70.3482 12.5765 70.5241 12.6355C70.6999 12.6945 70.8611 12.7909 70.9968 12.9182C71.1325 13.0455 71.2396 13.2007 71.3107 13.3733C71.3819 13.5459 71.4155 13.7319 71.4092 13.9187C71.4143 14.1042 71.3798 14.2886 71.3079 14.4595C71.236 14.6303 71.1285 14.7835 70.9927 14.9086C70.8568 15.0338 70.6958 15.1279 70.5207 15.1846C70.3455 15.2413 70.1603 15.2593 69.9776 15.2373H68.0854V12.5762H69.9776Z" fill="#BBBBBB"/>
<path fill-rule="evenodd" clip-rule="evenodd" d="M14.1562 11.4257C14.1128 11.4257 14.0707 11.4257 14.0286 11.4225C13.9859 11.4264 13.9431 11.429 13.901 11.429C13.5264 11.429 13.1672 11.2788 12.9023 11.0116C12.6374 10.7444 12.4886 10.382 12.4886 10.0041C12.4886 9.62623 12.6374 9.26382 12.9023 8.99661C13.1672 8.7294 13.5264 8.57928 13.901 8.57928C13.9444 8.57928 13.9872 8.57928 14.0286 8.58572V8.57285C14.0714 8.57285 14.1141 8.57992 14.1562 8.57992C14.7148 8.57878 15.2605 8.41064 15.7244 8.09675C16.1883 7.78285 16.5496 7.3373 16.7626 6.81637C16.9755 6.29544 17.0307 5.72252 16.921 5.16999C16.8113 4.61747 16.5418 4.11013 16.1464 3.71208C15.751 3.31404 15.2475 3.04315 14.6996 2.93364C14.1517 2.82412 13.5838 2.88091 13.0679 3.09681C12.5519 3.31271 12.111 3.67805 11.8008 4.14666C11.4905 4.61526 11.325 5.16611 11.325 5.7296V14.1467H11.3205C11.3205 14.1898 11.325 14.2329 11.325 14.2754C11.3274 15.4057 10.9973 16.5113 10.3766 17.4523C9.75583 18.3933 8.87231 19.1273 7.83784 19.5615C6.80337 19.9958 5.66445 20.1106 4.56524 19.8916C3.46602 19.6726 2.45593 19.1295 1.6628 18.3311C0.869674 17.5327 0.329169 16.5149 0.109696 15.4066C-0.109777 14.2982 0.0016493 13.149 0.429872 12.1045C0.858094 11.06 1.58386 10.1672 2.51531 9.53896C3.44677 8.91075 4.54203 8.57542 5.66249 8.57542C5.70523 8.57542 5.74797 8.57542 5.79008 8.57542V8.57928C5.83282 8.57542 5.87556 8.57285 5.91767 8.57285C6.10315 8.57285 6.28682 8.6097 6.45818 8.6813C6.62955 8.75291 6.78525 8.85786 6.91641 8.99017C7.04757 9.12248 7.1516 9.27955 7.22259 9.45242C7.29357 9.62529 7.3301 9.81057 7.3301 9.99768C7.3301 10.1848 7.29357 10.3701 7.22259 10.5429C7.1516 10.7158 7.04757 10.8729 6.91641 11.0052C6.78525 11.1375 6.62955 11.2425 6.45818 11.3141C6.28682 11.3857 6.10315 11.4225 5.91767 11.4225C5.87429 11.4225 5.83154 11.4225 5.79008 11.4161V11.429C5.74733 11.429 5.70523 11.4225 5.66249 11.4225C5.1039 11.4237 4.55818 11.5918 4.09429 11.9057C3.63039 12.2196 3.26913 12.6652 3.05615 13.1861C2.84318 13.707 2.78804 14.2799 2.89771 14.8325C3.00738 15.385 3.27694 15.8923 3.67232 16.2904C4.0677 16.6884 4.57117 16.9593 5.11911 17.0688C5.66704 17.1783 6.23486 17.1215 6.75082 16.9056C7.26678 16.6897 7.70773 16.3244 8.01794 15.8558C8.32816 15.3872 8.49373 14.8363 8.49373 14.2728V5.72574C8.49121 4.59527 8.82121 3.48946 9.44198 2.54828C10.0627 1.60709 10.9464 0.872859 11.981 0.43851C13.0156 0.00416119 14.1547 -0.110773 15.2541 0.108256C16.3535 0.327284 17.3637 0.870429 18.157 1.66894C18.9503 2.46745 19.4908 3.48542 19.7103 4.594C19.9298 5.70258 19.8183 6.85193 19.3899 7.89655C18.9616 8.94118 18.2356 9.83413 17.304 10.4624C16.3723 11.0906 15.2769 11.4259 14.1562 11.4257Z" fill="#BBBBBB"/>
</svg>
