<svg width="75" height="75" viewBox="0 0 75 75" fill="none" xmlns="http://www.w3.org/2000/svg">
<path d="M73.5752 45.0454C73.5752 45.0661 73.5752 45.0661 73.5752 45.0867L73.761 44.9422C73.6991 44.9835 73.6371 45.0248 73.5752 45.0454Z" fill="#999999"/>
<path d="M2.02368 74.9794C1.46613 74.9794 0.94989 74.7523 0.598844 74.36C0.227148 73.9884 0 73.4517 0 72.8737V2.1057C0 1.52766 0.227148 1.01156 0.598844 0.619323C0.97054 0.247729 1.46613 0 2.02368 0H72.9763C73.5339 0 74.0501 0.227085 74.4012 0.619323C74.7729 0.990917 75 1.52766 75 2.1057V72.9769C74.9793 73.5136 74.7522 74.0091 74.4012 74.3807C74.0295 74.7523 73.5339 75 72.9763 75L2.02368 74.9794ZM0.805341 0.846408C0.495595 1.17671 0.309747 1.61024 0.309747 2.1057V72.8737C0.309747 73.3691 0.495595 73.8027 0.805341 74.133C1.11509 74.4633 1.52808 74.6491 2.00303 74.6491H72.9557C73.4306 74.6491 73.8436 74.4426 74.1534 74.133C74.4631 73.8027 74.6489 73.3691 74.6489 72.8737V2.1057C74.6489 1.61024 74.4631 1.17671 74.1534 0.846408C73.8436 0.516102 73.4306 0.330306 72.9557 0.330306H2.02368C1.54873 0.330306 1.11509 0.536747 0.805341 0.846408ZM1.44548 0.268373C1.61068 0.206441 1.79653 0.185797 1.98238 0.185797C1.81718 0.185797 1.63133 0.206441 1.44548 0.268373ZM72.9557 0.165153C72.9763 0.165153 72.997 0.165153 73.0383 0.10322C73.0383 0.0206441 72.997 0.0412882 72.997 0.0206441L72.9763 0.0412882L72.9557 0.165153Z" fill="#999999"/>
<path d="M14.7646 65.9992L13.7734 69.2197H12.6583L11.9975 67.052L11.3574 69.2197H10.2423L9.2511 65.9992H10.3455L10.9031 68.2287L11.5845 65.9992H12.4931L13.1539 68.2287L13.6908 65.9992H14.7646Z" fill="#999999"/>
<path d="M20.5259 65.9992L19.5347 69.2197H18.4403L17.7795 67.052L17.1187 69.2197H16.0242L15.033 65.9992H16.1068L16.6644 68.2287L17.3458 65.9992H18.2751L18.9152 68.2287L19.4727 65.9992H20.5259Z" fill="#999999"/>
<path d="M26.3078 65.9992L25.296 69.2197H24.2015L23.5407 67.052L22.9006 69.2197H21.7855L20.7943 65.9992H21.8888L22.4257 68.2287L23.1278 65.9992H24.0363L24.6971 68.2287L25.234 65.9992H26.3078Z" fill="#999999"/>
<path d="M28.0424 68.0842H26.9686V69.2197H28.0424V68.0842Z" fill="#999999"/>
<path d="M32.2343 67.7952H29.8596C29.8802 68.0429 29.9628 68.2494 30.1487 68.3733C30.3345 68.4971 30.5823 68.5797 30.9334 68.5797C31.1605 68.5797 31.367 68.5384 31.5735 68.4558C31.78 68.3733 31.9452 68.2907 32.0691 68.2081H32.193V69.0339C31.9659 69.1371 31.7387 69.199 31.5322 69.2403C31.3257 69.2816 31.0986 69.3022 30.8508 69.3022C30.2106 69.3022 29.715 69.1577 29.364 68.8687C29.0129 68.5797 28.8477 68.1668 28.8477 67.6301C28.8477 67.0933 29.0129 66.6804 29.3433 66.3708C29.6737 66.0611 30.128 65.896 30.6856 65.896C31.2018 65.896 31.6148 66.0198 31.8626 66.2882C32.1311 66.5566 32.255 66.9282 32.255 67.4443L32.2343 67.7952ZM31.2018 67.1965C31.2018 66.9901 31.1399 66.8249 31.0366 66.7011C30.9334 66.5979 30.7682 66.5359 30.5617 66.5359C30.3552 66.5359 30.19 66.5772 30.0661 66.6804C29.9422 66.7837 29.8596 66.9488 29.8596 67.1759L31.2018 67.1965Z" fill="#999999"/>
<path d="M34.6503 69.3022C34.3612 69.3022 34.1134 69.2609 33.8863 69.199C33.6591 69.1371 33.4526 69.0339 33.2874 68.8894C33.1222 68.7448 32.9777 68.5797 32.8951 68.3526C32.7919 68.1462 32.7505 67.8984 32.7505 67.6094C32.7505 67.2998 32.7919 67.052 32.8951 66.8249C32.9983 66.5979 33.1429 66.4327 33.3081 66.2882C33.4733 66.1437 33.6798 66.0611 33.9069 65.9785C34.1341 65.896 34.3819 65.8753 34.609 65.8753C34.8362 65.8753 35.0427 65.896 35.2285 65.9372C35.4144 65.9785 35.5796 66.0405 35.7448 66.123V67.0107H35.6002C35.5589 66.9695 35.5176 66.9282 35.4557 66.8869C35.3937 66.8456 35.3318 66.8043 35.2492 66.7424C35.1666 66.7011 35.084 66.6598 34.9807 66.6391C34.8775 66.6185 34.7742 66.5979 34.6503 66.5979C34.3819 66.5979 34.1547 66.6804 34.0102 66.8662C33.8656 67.052 33.783 67.2791 33.783 67.5888C33.783 67.8984 33.8656 68.1255 34.0102 68.2907C34.1547 68.4558 34.3819 68.5384 34.6503 68.5384C34.7742 68.5384 34.8981 68.5178 35.0014 68.4971C35.1046 68.4765 35.1872 68.4352 35.2698 68.3939C35.3318 68.3526 35.3937 68.3113 35.435 68.27C35.4763 68.2287 35.5383 68.1875 35.5796 68.1462H35.7241V69.0339C35.5589 69.1164 35.3937 69.1784 35.2079 69.2197C35.0633 69.2816 34.8568 69.3022 34.6503 69.3022Z" fill="#999999"/>
<path d="M39.7302 67.6094C39.7302 68.1462 39.565 68.559 39.2552 68.8687C38.9455 69.1784 38.5118 69.3229 37.9543 69.3229C37.3968 69.3229 36.9631 69.1784 36.6534 68.8687C36.3436 68.559 36.1991 68.1462 36.1991 67.6094C36.1991 67.0727 36.3643 66.6598 36.674 66.3501C36.9838 66.0405 37.4174 65.896 37.9749 65.896C38.5325 65.896 38.9661 66.0405 39.2759 66.3501C39.5856 66.6598 39.7302 67.0727 39.7302 67.6094ZM38.4499 68.3939C38.5118 68.3113 38.5738 68.2081 38.5944 68.1049C38.6151 68.0017 38.6357 67.8365 38.6357 67.6301C38.6357 67.4443 38.6151 67.2791 38.5944 67.1552C38.5531 67.0314 38.5118 66.9282 38.4499 66.8456C38.3879 66.763 38.3053 66.7217 38.2227 66.6804C38.1401 66.6391 38.0369 66.6391 37.9336 66.6391C37.8304 66.6391 37.7478 66.6598 37.6652 66.6804C37.5826 66.7011 37.5206 66.763 37.438 66.8456C37.3761 66.9282 37.3348 67.0314 37.2935 67.1552C37.2522 67.2791 37.2316 67.4443 37.2316 67.6507C37.2316 67.8365 37.2522 67.981 37.2729 68.1049C37.3142 68.2287 37.3554 68.332 37.4174 68.4145C37.4793 68.4971 37.5619 68.5384 37.6445 68.5797C37.7271 68.621 37.8304 68.621 37.9336 68.621C38.0369 68.621 38.1195 68.6003 38.2021 68.5797C38.326 68.5178 38.3879 68.4765 38.4499 68.3939Z" fill="#999999"/>
<path d="M41.5061 64.7605H40.4736V69.2403H41.5061V64.7605Z" fill="#999999"/>
<path d="M44.4383 68.8894C44.3764 68.9306 44.3144 68.9719 44.2318 69.0339C44.1492 69.0958 44.0666 69.1371 44.0047 69.1784C43.9014 69.2197 43.7982 69.2609 43.6949 69.2816C43.5917 69.3022 43.4678 69.3229 43.3439 69.3229C43.0341 69.3229 42.7863 69.2197 42.5798 69.0339C42.3733 68.8481 42.2701 68.6003 42.2701 68.3113C42.2701 68.0842 42.332 67.8778 42.4353 67.7333C42.5385 67.5888 42.6831 67.4649 42.8896 67.3823C43.0754 67.2998 43.3232 67.2378 43.6123 67.1965C43.9014 67.1553 44.1905 67.1346 44.5003 67.114V67.0933C44.5003 66.9075 44.4177 66.7837 44.2731 66.7217C44.1286 66.6598 43.9221 66.6185 43.633 66.6185C43.4678 66.6185 43.2819 66.6391 43.0961 66.7011C42.9102 66.763 42.7657 66.8043 42.6831 66.8456H42.5798V66.0611C42.6831 66.0405 42.8689 65.9992 43.1167 65.9579C43.3645 65.9166 43.6123 65.896 43.8601 65.896C44.4383 65.896 44.872 65.9785 45.1404 66.1643C45.4089 66.3501 45.5328 66.6391 45.5328 67.0107V69.199H44.5003V68.8894H44.4383ZM44.4383 68.3733V67.7126C44.2938 67.7333 44.1492 67.7333 43.984 67.7539C43.8188 67.7746 43.6949 67.7952 43.6123 67.8159C43.5091 67.8571 43.4265 67.8984 43.3852 67.9604C43.3232 68.0223 43.3026 68.1049 43.3026 68.2081C43.3026 68.27 43.3026 68.332 43.3232 68.3733C43.3439 68.4145 43.3645 68.4558 43.4058 68.4971C43.4471 68.5384 43.5091 68.5591 43.571 68.5797C43.633 68.6003 43.7362 68.6003 43.8601 68.6003C43.9634 68.6003 44.0666 68.5797 44.1699 68.5384C44.2731 68.4971 44.3557 68.4558 44.4383 68.3733Z" fill="#999999"/>
<path d="M49.7866 67.5681C49.7866 68.0842 49.6421 68.4971 49.3736 68.8068C49.0845 69.1371 48.7335 69.2816 48.3205 69.2816C48.1346 69.2816 47.9901 69.2609 47.8455 69.2197C47.701 69.1784 47.5771 69.1164 47.4532 69.0545L47.4119 69.2197H46.4207V64.7605H47.4532V66.3501C47.6184 66.2263 47.7836 66.123 47.9488 66.0405C48.114 65.9579 48.2998 65.9166 48.527 65.9166C48.94 65.9166 49.2497 66.0611 49.4769 66.3501C49.6834 66.6391 49.7866 67.052 49.7866 67.5681ZM48.7335 67.5888C48.7335 67.2998 48.6922 67.0727 48.5889 66.9282C48.4857 66.7837 48.3205 66.7011 48.0727 66.7011C47.9694 66.7011 47.8662 66.7217 47.7629 66.7424C47.6597 66.763 47.5564 66.8043 47.4738 66.8662V68.4765C47.5564 68.4971 47.6184 68.5178 47.6803 68.5384C47.7423 68.5384 47.8249 68.559 47.9281 68.559C48.1966 68.559 48.4031 68.4765 48.5476 68.3113C48.6509 68.1462 48.7335 67.9191 48.7335 67.5888Z" fill="#999999"/>
<path d="M53.7307 67.7952H51.356C51.3766 68.0429 51.4593 68.2494 51.6451 68.3733C51.8309 68.4971 52.0787 68.5797 52.4298 68.5797C52.6569 68.5797 52.8634 68.5384 53.0699 68.4558C53.2764 68.3733 53.4416 68.2907 53.5655 68.2081H53.6894V69.0339C53.4623 69.1371 53.2351 69.199 53.0286 69.2403C52.8221 69.2816 52.595 69.3022 52.3472 69.3022C51.707 69.3022 51.2115 69.1577 50.8604 68.8687C50.5094 68.5797 50.3442 68.1668 50.3442 67.6301C50.3442 67.0933 50.5094 66.6804 50.8398 66.3708C51.1702 66.0611 51.6244 65.896 52.182 65.896C52.6982 65.896 53.1112 66.0198 53.359 66.2882C53.6275 66.5566 53.7514 66.9282 53.7514 67.4443L53.7307 67.7952ZM52.6982 67.1965C52.6982 66.9901 52.6363 66.8249 52.533 66.7011C52.4298 66.5979 52.2646 66.5359 52.0581 66.5359C51.8516 66.5359 51.6864 66.5772 51.5625 66.6804C51.4386 66.7837 51.356 66.9488 51.356 67.1759L52.6982 67.1965Z" fill="#999999"/>
<path d="M55.486 64.7605H54.4535V69.2403H55.486V64.7605Z" fill="#999999"/>
<path d="M57.5716 68.0842H56.4978V69.2197H57.5716V68.0842Z" fill="#999999"/>
<path d="M59.4094 67.7952C59.4301 68.0429 59.5127 68.2494 59.6985 68.3733C59.8844 68.4971 60.1322 68.5797 60.4832 68.5797C60.7104 68.5797 60.9168 68.5384 61.1233 68.4558C61.3298 68.3733 61.495 68.2907 61.6189 68.2081H61.7428V69.0339C61.5157 69.1371 61.2885 69.199 61.082 69.2403C60.8755 69.2816 60.6484 69.3022 60.4006 69.3022C59.7605 69.3022 59.2649 69.1577 58.9138 68.8687C58.5628 68.5797 58.3976 68.1668 58.3976 67.6301C58.3976 67.0933 58.5628 66.6804 58.8932 66.3708C59.2236 66.0611 59.6779 65.896 60.2354 65.896C60.7517 65.896 61.1646 66.0198 61.4124 66.2882C61.6809 66.5566 61.8048 66.9282 61.8048 67.4443V67.7952H59.4094ZM60.7517 67.1965C60.7517 66.9901 60.6897 66.8249 60.5864 66.7011C60.4832 66.5979 60.318 66.5359 60.1115 66.5359C59.905 66.5359 59.7398 66.5772 59.6159 66.6804C59.492 66.7837 59.4094 66.9488 59.4094 67.1759L60.7517 67.1965Z" fill="#999999"/>
<path d="M65.7282 69.2197H64.6958V68.8687C64.5099 69.0132 64.3241 69.1164 64.1589 69.199C63.9937 69.2816 63.8078 69.3229 63.5807 69.3229C63.2296 69.3229 62.9405 69.2197 62.7547 69.0132C62.5688 68.8068 62.4656 68.4971 62.4656 68.1049V65.9992H63.4981V67.6094C63.4981 67.7746 63.4981 67.8984 63.5187 68.0223C63.5394 68.1255 63.56 68.2287 63.6013 68.2907C63.6426 68.3526 63.6839 68.4145 63.7665 68.4558C63.8491 68.4971 63.9524 68.4971 64.0763 68.4971C64.1589 68.4971 64.2621 68.4765 64.3654 68.4558C64.4686 68.4145 64.5719 68.3732 64.6751 68.3113V65.9992H65.7076L65.7282 69.2197Z" fill="#999999"/>
<path d="M12.7822 62.9026V44.2403H18.0066V45.7267H14.2277V53.5714H16.5198V55.0578H14.2277V61.4368H18.0066V62.9026H12.7822Z" fill="#999999"/>
<path d="M23.5201 54.4178V52.2915C23.5201 51.9818 23.4168 51.6928 23.1897 51.4864C22.9626 51.2593 22.6941 51.1561 22.3637 51.1561C22.0333 51.1561 21.7649 51.2593 21.5377 51.4864C21.3106 51.7135 21.2073 51.9818 21.2073 52.2915V60.4459C21.2073 60.7556 21.3106 61.0446 21.5377 61.251C21.7649 61.4781 22.0333 61.5813 22.3637 61.5813C22.6941 61.5813 22.9626 61.4781 23.1897 61.251C23.4168 61.024 23.5201 60.7556 23.5201 60.4459V58.4847H24.9862V60.4459C24.9862 60.8175 24.9243 61.1478 24.7797 61.4781C24.6352 61.7878 24.4493 62.0768 24.2222 62.3039C23.9744 62.5516 23.7059 62.7374 23.3962 62.8613C23.0865 63.0058 22.7354 63.0677 22.3844 63.0677C22.0127 63.0677 21.6823 63.0058 21.3519 62.8613C21.0421 62.7168 20.753 62.531 20.5259 62.3039C20.2781 62.0562 20.0922 61.7878 19.9683 61.4781C19.8238 61.1685 19.7618 60.8175 19.7618 60.4459V52.2915C19.7618 51.9199 19.8238 51.5896 19.9683 51.2593C20.0922 50.9496 20.2987 50.6606 20.5259 50.4335C20.7737 50.1858 21.0421 50 21.3519 49.8761C21.6616 49.7316 22.0127 49.6697 22.3844 49.6697C22.7561 49.6697 23.0865 49.7316 23.3962 49.8761C23.7059 50.0206 23.995 50.2064 24.2222 50.4335C24.4493 50.6813 24.6558 50.9496 24.7797 51.2593C24.9036 51.569 24.9862 51.9199 24.9862 52.2915V54.4178H23.5201Z" fill="#999999"/>
<path d="M32.3376 60.4459C32.3376 60.8175 32.2756 61.1478 32.1311 61.4781C31.9865 61.7878 31.8007 62.0768 31.5735 62.3039C31.3257 62.5516 31.0573 62.7374 30.7475 62.8613C30.4378 63.0058 30.0867 63.0677 29.715 63.0677C29.3433 63.0677 29.0129 63.0058 28.6825 62.8613C28.3728 62.7168 28.0837 62.531 27.8566 62.3039C27.6088 62.0562 27.4229 61.7878 27.299 61.4781C27.1545 61.1685 27.0925 60.8175 27.0925 60.4459V52.2709C27.0925 51.8993 27.1545 51.569 27.299 51.2386C27.4229 50.929 27.6294 50.64 27.8566 50.4129C28.0837 50.1652 28.3728 49.9794 28.6825 49.8555C28.9923 49.711 29.3433 49.6491 29.715 49.6491C30.0867 49.6491 30.4171 49.711 30.7475 49.8555C31.0573 50 31.3464 50.1858 31.5735 50.4129C31.8007 50.6606 32.0072 50.929 32.1311 51.2386C32.255 51.5483 32.3376 51.8993 32.3376 52.2709V60.4459ZM30.8714 52.2915C30.8714 51.9818 30.7682 51.7135 30.541 51.4864C30.3139 51.2593 30.0454 51.1561 29.715 51.1561C29.3846 51.1561 29.1162 51.2593 28.889 51.4864C28.6619 51.7135 28.5586 51.9818 28.5586 52.2915V60.4666C28.5586 60.7762 28.6619 61.0652 28.889 61.2717C29.1162 61.4988 29.3846 61.602 29.715 61.602C30.0454 61.602 30.3139 61.4988 30.541 61.2717C30.7682 61.0446 30.8714 60.7762 30.8714 60.4666V52.2915Z" fill="#999999"/>
<path d="M35.9306 44.2609H34.4645V62.9026H35.9306V44.2609Z" fill="#999999"/>
<path d="M41.8158 62.82C41.63 62.9026 41.4648 62.9645 41.2789 63.0058C41.0931 63.0471 40.8866 63.0677 40.6594 63.0677C40.2877 63.0677 39.9573 63.0058 39.6269 62.8613C39.3172 62.7168 39.0281 62.531 38.8009 62.3039C38.5531 62.0562 38.3673 61.7878 38.2434 61.4781C38.0988 61.1685 38.0369 60.8175 38.0369 60.4459V56.5235C38.0369 56.1519 38.0988 55.8216 38.2434 55.4913C38.3879 55.1817 38.5738 54.8927 38.8009 54.6656C39.0487 54.4178 39.3172 54.232 39.6269 54.1082C39.9367 53.9637 40.2877 53.9017 40.6594 53.9017C40.8866 53.9017 41.0931 53.9224 41.2996 53.9843C41.5061 54.0462 41.6713 54.1082 41.8158 54.1701V52.2915C41.8158 51.9818 41.7126 51.7135 41.4854 51.4864C41.2583 51.2593 40.9898 51.1561 40.6594 51.1561C40.329 51.1561 40.0606 51.2593 39.8334 51.4864C39.6063 51.7135 39.503 51.9818 39.503 52.2915V52.9315H38.0369V52.2915C38.0369 51.9199 38.0988 51.5896 38.2434 51.2593C38.3879 50.9496 38.5738 50.6606 38.8009 50.4335C39.0281 50.1858 39.3172 50 39.6269 49.8761C39.9367 49.7316 40.2877 49.6697 40.6388 49.6697C40.9898 49.6697 41.3409 49.7316 41.6713 49.8761C41.981 50.0206 42.2701 50.2064 42.4972 50.4335C42.7244 50.6813 42.9309 50.9496 43.0548 51.2593C43.1993 51.569 43.2613 51.9199 43.2613 52.2915V62.9026H41.7952V62.82H41.8158ZM39.503 60.4459C39.503 60.7556 39.6063 61.0446 39.8334 61.251C40.0606 61.4781 40.329 61.5813 40.6594 61.5813C40.9898 61.5813 41.2583 61.4781 41.4854 61.251C41.7126 61.024 41.8158 60.7556 41.8158 60.4459V56.5235C41.8158 56.2139 41.7126 55.9249 41.4854 55.7184C41.2583 55.4913 40.9898 55.3881 40.6594 55.3881C40.329 55.3881 40.0606 55.4913 39.8334 55.7184C39.6063 55.9455 39.503 56.2139 39.503 56.5235V60.4459Z" fill="#999999"/>
<path d="M47.3706 49.7523C47.5771 49.6903 47.7836 49.6697 48.0107 49.6697C48.3824 49.6697 48.7128 49.7316 49.0432 49.8761C49.353 50.0206 49.6421 50.2064 49.8692 50.4335C50.117 50.6813 50.3029 50.9496 50.4268 51.2593C50.5713 51.569 50.6333 51.9199 50.6333 52.2915V60.4459C50.6333 60.8175 50.5713 61.1478 50.4268 61.4781C50.2822 61.7878 50.0964 62.0768 49.8692 62.3039C49.6214 62.5516 49.353 62.7374 49.0432 62.8613C48.7335 63.0058 48.3824 63.0677 48.0107 63.0677C47.7836 63.0677 47.5771 63.0471 47.4119 62.9851C47.226 62.9439 47.0402 62.8819 46.875 62.7993V62.9026H45.4089V44.2609H46.875V49.9174C46.9989 49.8555 47.1641 49.7936 47.3706 49.7523ZM48.8367 51.4657C48.6096 51.2387 48.3411 51.1354 48.0107 51.1354C47.6803 51.1354 47.4119 51.2387 47.1847 51.4657C46.9576 51.6928 46.8543 51.9612 46.8543 52.2709V60.4253C46.8543 60.7349 46.9576 61.024 47.1847 61.2304C47.4119 61.4575 47.6803 61.5607 48.0107 61.5607C48.3411 61.5607 48.6096 61.4575 48.8367 61.2304C49.0639 61.0033 49.1671 60.7349 49.1671 60.4253V52.2709C49.1671 51.9612 49.0639 51.6928 48.8367 51.4657Z" fill="#999999"/>
<path d="M52.7602 52.2915C52.7602 51.9199 52.8221 51.5896 52.9667 51.2593C53.1112 50.9496 53.2971 50.6606 53.5242 50.4335C53.7514 50.1858 54.0405 50 54.3502 49.8761C54.66 49.7316 55.011 49.6697 55.3827 49.6697C55.7544 49.6697 56.0848 49.7316 56.3945 49.8761C56.7043 50.0206 56.9934 50.2064 57.2205 50.4335C57.4477 50.6813 57.6542 50.9496 57.7781 51.2593C57.9226 51.569 57.9846 51.9199 57.9846 52.2915V57.3493H54.2057V60.4459C54.2057 60.7556 54.3089 61.0446 54.5361 61.251C54.7632 61.4781 55.0317 61.5813 55.3621 61.5813C55.6925 61.5813 55.9609 61.4781 56.188 61.251C56.4152 61.024 56.5184 60.7556 56.5184 60.4459V59.4756H57.9846V60.4459C57.9846 60.8175 57.9226 61.1478 57.7781 61.4781C57.6335 61.7878 57.4477 62.0768 57.2205 62.3039C56.9727 62.5516 56.7043 62.7374 56.3945 62.8613C56.0848 63.0058 55.7338 63.0677 55.3827 63.0677C55.011 63.0677 54.6806 63.0058 54.3502 62.8613C54.0405 62.7168 53.7514 62.531 53.5242 62.3039C53.2764 62.0562 53.0906 61.7878 52.9667 61.4781C52.8221 61.1685 52.7602 60.8175 52.7602 60.4459V52.2915ZM54.2057 55.8629H56.5184V52.2915C56.5184 51.9818 56.4152 51.6928 56.188 51.4864C55.9609 51.2593 55.6925 51.1561 55.3621 51.1561C55.0317 51.1561 54.7632 51.2593 54.5361 51.4864C54.3089 51.7135 54.2057 51.9818 54.2057 52.2915V55.8629Z" fill="#999999"/>
<path d="M61.5776 44.2609H60.1115V62.9026H61.5776V44.2609Z" fill="#999999"/>
<path d="M17.1393 43.4352H12.8648V36.9529H17.1393V37.7168H13.7321V39.4922H17.1393V40.256H13.7321V42.6713H17.1393V43.4352Z" fill="#999999"/>
<path d="M23.3962 40.834C23.3962 41.3088 23.3549 41.7217 23.2516 42.0727C23.1484 42.4236 22.9832 42.7126 22.7354 42.9397C22.5083 43.1668 22.2605 43.332 21.9507 43.4145C21.641 43.5178 21.3106 43.559 20.8976 43.559C20.4846 43.559 20.1335 43.4971 19.8238 43.3939C19.514 43.2907 19.2662 43.1255 19.0597 42.9191C18.8326 42.6713 18.6468 42.403 18.5435 42.052C18.4403 41.7217 18.399 41.3088 18.399 40.8134V36.9323H19.2662V40.8547C19.2662 41.2056 19.2869 41.4946 19.3282 41.6804C19.3695 41.8869 19.4521 42.0727 19.576 42.2378C19.6999 42.4236 19.8857 42.5681 20.0922 42.6713C20.3194 42.7746 20.5672 42.8159 20.8769 42.8159C21.1867 42.8159 21.4551 42.7746 21.6616 42.6713C21.8888 42.5681 22.054 42.4236 22.1779 42.2378C22.2811 42.0727 22.3637 41.8869 22.4257 41.6598C22.467 41.4533 22.4876 41.185 22.4876 40.8547V36.9116H23.3549V40.834H23.3962Z" fill="#999999"/>
<path d="M43.3852 12.6135C43.1993 12.5103 42.9928 12.4071 42.7863 12.3452C40.329 11.3955 37.5826 12.6342 36.6327 15.0908C35.6828 17.5475 36.9218 20.2931 39.3791 21.2428C39.5856 21.3254 39.7921 21.3873 40.0193 21.4286C40.3703 21.5112 40.6594 21.3047 40.7214 20.9538C40.804 20.6028 40.6388 20.2519 40.3084 20.1693C40.1638 20.128 39.9986 20.0867 39.8541 20.0248C38.264 19.4055 37.3761 17.7539 37.6858 16.1437L40.2464 17.114C40.5768 17.2378 40.8866 17.0727 41.0105 16.7424C41.1344 16.4121 41.0311 16.0405 40.7007 15.9166L38.1401 14.9463C39.0074 13.5425 40.7627 12.9026 42.3527 13.5219C42.4972 13.5838 42.6624 13.6457 42.807 13.7283C43.1167 13.8935 43.4471 13.7696 43.6123 13.46C43.7569 13.1709 43.6949 12.7787 43.3852 12.6135Z" fill="#999999"/>
<path d="M37.4174 32.6796C37.2522 36.5194 35.8687 35.5904 36.0545 42.2791C35.4557 38.1709 36.0958 37.6135 37.0457 34.0008C35.9926 37.242 35.435 37.0149 35.8687 42.403C35.6002 42.692 35.9306 43.8481 34.8981 43.3113C34.0515 41.9075 34.0721 39.5747 36.323 31.3171C36.4056 30.9661 37.5 30.3881 37.4174 32.6796Z" fill="#999999"/>
<path d="M27.361 37.0974C28.0011 37.0974 30.0867 36.8291 31.3464 37.7168C32.1517 38.2742 32.8331 38.7696 33.0396 39.0999C33.2255 39.3889 33.3287 39.7399 33.4733 40.0083C33.5972 40.2766 32.544 40.2766 31.9865 40.2766C31.1399 40.256 28.7238 37.0974 27.361 37.0974Z" fill="#999999"/>
<path d="M33.8037 36.3543C34.0721 36.8291 34.0102 37.4071 33.4526 37.1594C32.7505 36.8291 31.6768 36.3543 31.1605 36.0446C28.4347 34.3311 24.6971 26.0735 20.8976 25.0826C21.579 25.0619 22.0953 25.0206 22.6528 25.1445C23.3342 25.2684 33.2874 30.5326 33.8037 36.3543Z" fill="#999999"/>
<path d="M38.9042 37.3865C36.8392 34.5789 42.9102 30.6565 49.4975 33.2576C48.7541 33.3196 47.4119 33.237 46.7098 33.5673C46.9163 33.877 48.3824 34.0008 49.704 34.104C49.2704 33.8563 49.1258 33.7325 48.7541 33.6705C50.8811 33.4228 52.12 34.7234 53.5036 35.095C52.7808 35.1569 52.3059 35.1569 52.12 35.1569C52.1407 35.2601 52.2026 35.2395 52.3265 35.4046C51.6038 35.1156 49.0639 35.3014 48.1553 35.5285C47.2467 35.7762 46.6892 35.5491 46.111 35.5904C46.2142 35.7143 46.3588 35.7556 46.4207 35.8794C45.4295 35.6317 43.2406 35.8175 41.7332 36.5607C41.8571 36.3955 42.0016 36.2717 42.1668 36.1891C40.7833 36.5194 39.2965 37.6342 38.9042 37.3865Z" fill="#999999"/>
<path d="M37.8923 40.1321C37.8923 39.2651 39.6889 38.9348 40.391 38.7696C41.0724 38.6045 42.5385 38.1709 43.7569 38.1503C45.4089 38.1296 48.114 38.5838 49.3323 39.5747C48.7541 39.3683 47.3706 38.9348 46.6479 39.0173C46.8337 39.1412 46.8544 39.2031 46.8956 39.2857C46.8956 39.2857 46.4001 39.2857 46.1523 39.4922C46.3381 39.4302 47.3706 39.5541 47.8249 39.5747C47.3293 39.678 45.698 39.9463 45.3469 40.0495C45.5534 40.1321 45.6567 40.1734 45.8012 40.256C44.6448 40.3592 41.9191 41.6598 40.804 41.6804C39.6889 41.7424 37.8923 41.6598 37.8923 40.1321Z" fill="#999999"/>
<path d="M41.5887 5.78035L42.6418 5.01652H41.3409L40.9485 3.79851L40.5562 5.01652H39.2552L40.3084 5.78035L39.916 6.99835L40.9485 6.23452L42.0016 6.99835L41.5887 5.78035Z" fill="#999999"/>
<path d="M47.4325 7.26672L48.465 6.50289H47.1847L46.7924 5.28489L46.4001 6.50289H45.0991L46.1523 7.26672L45.7393 8.48472L46.7924 7.72089L47.8249 8.48472L47.4325 7.26672Z" fill="#999999"/>
<path d="M51.5212 11.6639L52.5537 10.9001H51.2734L50.8811 9.68208L50.4681 10.9001H49.1878L50.2203 11.6639L49.8279 12.8819L50.8811 12.1387L51.9135 12.8819L51.5212 11.6639Z" fill="#999999"/>
<path d="M35.7448 7.26672L36.7979 6.50289H35.5176L35.1046 5.28489L34.7123 6.50289H33.432L34.4645 7.26672L34.0721 8.48472L35.1046 7.72089L36.1578 8.48472L35.7448 7.26672Z" fill="#999999"/>
<path d="M31.6768 11.6639L32.7092 10.9001H31.429L31.016 9.68208L30.6236 10.9001H29.3433L30.3758 11.6639L29.9835 12.8819L31.016 12.1387L32.0691 12.8819L31.6768 11.6639Z" fill="#999999"/>
<path d="M52.946 17.1759L53.9992 16.4327H52.6982L52.3059 15.1941L51.9135 16.4327H50.6126L51.6657 17.1759L51.2734 18.4145L52.3059 17.6507L53.359 18.4145L52.946 17.1759Z" fill="#999999"/>
<path d="M51.356 22.9149L52.4091 22.1718H51.1082L50.7159 20.9331L50.3235 22.1718H49.0226L50.0757 22.9149L49.6627 24.1536L50.7159 23.3898L51.7483 24.1536L51.356 22.9149Z" fill="#999999"/>
<path d="M47.1434 27.0438L48.1759 26.2799H46.8956L46.4827 25.0619L46.0903 26.2799H44.81L45.8425 27.0438L45.4502 28.2618L46.4827 27.4979L47.5358 28.2618L47.1434 27.0438Z" fill="#999999"/>
<path d="M31.8213 22.9149L32.8744 22.1718H31.5735L31.1812 20.9331L30.7888 22.1718H29.4879L30.541 22.9149L30.1487 24.1536L31.1812 23.3898L32.2343 24.1536L31.8213 22.9149Z" fill="#999999"/>
<path d="M36.0545 27.0438L37.087 26.2799H35.8067L35.4144 25.0619L35.0014 26.2799H33.7211L34.7536 27.0438L34.3612 28.2618L35.4144 27.4979L36.4469 28.2618L36.0545 27.0438Z" fill="#999999"/>
<path d="M30.2313 17.1759L31.2844 16.4327H29.9835L29.5911 15.1941L29.1988 16.4327H27.8979L28.951 17.1759L28.538 18.4145L29.5911 17.6507L30.6236 18.4145L30.2313 17.1759Z" fill="#999999"/>
<path d="M41.5887 28.7159L42.6418 27.9521H41.3409L40.9485 26.7341L40.5562 27.9521H39.2552L40.3084 28.7159L39.916 29.9339L40.9485 29.1701L42.0016 29.9339L41.5887 28.7159Z" fill="#999999"/>
</svg>
