<svg width="173" height="80" viewBox="0 0 173 80" fill="none" xmlns="http://www.w3.org/2000/svg">
<path fill-rule="evenodd" clip-rule="evenodd" d="M138.79 78.0793C134.722 79.2902 130.487 79.9582 126.003 79.9582H125.92V80H125.878C121.395 80 117.077 79.3319 113.008 78.0793C108.649 76.5344 104.58 73.4864 102.048 69.6451C97.8963 63.5491 94.1182 51.7745 93.9522 40V39.9582C94.1182 28.2255 97.8963 16.4092 102.048 10.3132C104.539 6.51357 108.608 3.4238 113.008 1.87891C117.077 0.668058 121.478 0 125.962 0C130.404 0 134.846 0.626305 138.915 1.87891C143.274 3.38205 147.343 6.47182 149.875 10.3132C154.027 16.4092 157.805 28.1837 157.971 39.9582V40C157.805 51.7328 154.027 63.5491 149.875 69.6451C147.343 73.4447 143.191 76.5344 138.79 78.0793ZM150.373 65.261C152.947 59.5407 155.604 48.81 155.48 39.9583C155.646 31.1065 152.947 20.3341 150.373 14.6556C147.509 8.14198 143.149 4.13363 136.714 2.37998C133.227 1.50315 129.615 1.04386 125.879 1.04386C122.142 1.04386 118.489 1.50315 115.043 2.37998C108.608 4.13363 104.248 8.14198 101.384 14.6556C98.8097 20.3758 96.1526 31.1065 96.2771 39.9583C96.1111 48.81 98.8097 59.5407 101.384 65.261C104.248 71.7746 108.608 75.7829 115.043 77.5366C118.489 78.4134 122.142 78.8727 125.879 78.8727C129.615 78.8727 133.268 78.4134 136.714 77.5366C143.149 75.7829 147.509 71.7746 150.373 65.261Z" fill="#999999"/>
<path d="M148.403 10.9396H171.796V68.9355H148.43C148.173 69.3383 147.909 69.728 147.635 70.1046H173V9.77054H147.605C147.88 10.1471 148.146 10.5368 148.403 10.9396Z" fill="#999999"/>
<path d="M104.153 9.77054H0V70.1046H104.122C103.848 69.728 103.584 69.3383 103.328 68.9355H1.16247V10.9396H103.354C103.612 10.5368 103.878 10.1471 104.153 9.77054Z" fill="#999999"/>
<path fill-rule="evenodd" clip-rule="evenodd" d="M134.971 11.6489C132.148 10.8556 129.075 10.4381 126.003 10.4381H125.92C122.848 10.4381 119.776 10.8974 116.952 11.6489C113.963 12.5257 111.472 14.6134 110.227 17.4527C107.528 23.2564 105.743 31.6489 105.743 39.9161C105.743 48.1416 107.528 56.5341 110.227 62.3796C111.472 65.2189 113.922 67.3065 116.952 68.1834C119.776 68.9767 122.848 69.3942 125.92 69.3942H126.003C129.075 69.3942 132.148 68.9349 134.971 68.1834C137.96 67.3065 140.451 65.2189 141.696 62.3796C144.395 56.5759 146.18 48.1834 146.18 39.9161C146.18 31.6907 144.395 23.2982 141.696 17.4527C140.451 14.6134 138.001 12.5257 134.971 11.6489ZM132.079 17.9569L132.08 17.9526C132.305 16.7788 132.544 15.5316 133.808 15.0308C134.306 14.9055 135.012 14.9473 135.469 15.3231C136.05 15.7406 136.216 16.4504 136.092 17.1185C135.713 18.4514 134.367 18.777 133.125 19.0774C133.006 19.1063 132.887 19.135 132.77 19.1644L132.023 18.2458C132.042 18.1503 132.06 18.0538 132.079 17.9569ZM114.752 24.0915C113.506 22.7136 113.382 20.6677 113.631 18.8305C113.88 19.4986 114.295 19.9996 114.96 20.3336C114.918 20.1458 114.814 19.9683 114.71 19.7908C114.607 19.6134 114.503 19.4359 114.461 19.2481C114.171 18.4965 114.212 17.4526 114.669 16.7846C115.001 16.2835 115.499 16.0748 116.039 15.866C115.831 16.4923 115.79 17.2439 116.039 17.8284C116.218 17.671 116.312 17.5984 116.407 17.5258C116.488 17.4635 116.569 17.4012 116.703 17.2856C116.828 17.2021 116.869 17.1604 116.952 17.0769C117.451 18.1625 118.032 19.6238 117.7 20.9182L117.492 21.461C117.409 20.5842 117.284 20.1249 116.662 19.8326C116.615 20.1162 116.701 20.3596 116.799 20.6386C116.875 20.8526 116.958 21.0876 116.994 21.3775C117.243 22.4213 117.035 23.4652 116.413 24.0497H114.752V24.0915ZM114.739 27.0285C114.784 27.2992 114.839 27.6325 114.918 28.1415C115.375 28.3085 115.831 28.559 116.205 28.8931L116.579 25.7198H117.451V24.7594H113.673V25.7198H114.544C114.622 26.3142 114.667 26.5887 114.739 27.0285ZM138.915 35.4066L138.5 37.0767H133.85L133.185 35.5736C132.579 35.5267 132.287 35.5061 131.949 35.4823C131.685 35.4637 131.393 35.4432 130.902 35.4066C131.981 34.0705 133.019 32.7343 133.767 31.2312V29.1018L135.842 28.8513V33.8617C135.842 34.0287 136.092 34.1957 136.341 34.1957H136.465C136.548 34.1957 136.963 34.1122 136.963 33.8617V28.6425C137.255 28.5735 137.554 28.4903 137.85 28.4075C138.272 28.2899 138.691 28.1732 139.081 28.0997V31.2312C139.421 31.197 139.622 31.1627 139.958 31.1055L140.088 31.0834L140.202 31.0642V35.1978L138.915 35.4066ZM121.229 38.3712H111.057V41.3357H121.229V38.3712ZM118.904 64.0497L118.88 63.9978C118.69 63.577 118.611 63.404 118.572 62.9223H124.384C124.384 63.7156 123.927 64.5089 123.18 65.0517C122.391 65.6363 121.021 65.7615 120.149 65.2605C119.651 65.0517 119.194 64.5507 118.904 64.0497ZM122.059 61.6695H125.173V65.2603H127.165V61.6695H130.279V60.2081H127.165C126.975 59.9849 126.858 59.8408 126.757 59.7177C126.595 59.5186 126.477 59.3745 126.169 59.039L125.173 60.2081H122.059V61.6695ZM125.546 57.2021C126.169 56.9933 127.082 56.6175 127.249 55.9912C127.213 55.1685 127.695 54.4683 128.148 53.812C128.223 53.7022 128.298 53.5937 128.369 53.486C128.619 53.152 128.66 52.9432 128.577 52.5674C129.573 52.6091 130.57 53.4442 130.943 54.3628C131.359 55.3231 131.193 56.5758 130.57 57.3691C129.823 58.2877 128.743 58.7887 127.498 58.5799C126.75 58.4129 125.961 57.9119 125.546 57.2021ZM116.122 44.0913C116.703 43.799 117.492 43.8825 118.032 44.1748C118.99 44.6166 118.988 46.4487 118.987 48.0369L118.987 48.2249C118.676 48.0168 118.566 47.9816 118.324 47.9038C118.275 47.888 118.22 47.8703 118.156 47.8491C117.783 47.8074 117.409 47.8491 117.16 48.0579C116.828 48.3502 116.786 48.6425 116.786 49.1435C116.779 49.4792 116.779 49.7969 116.78 50.0961C116.783 51.4342 116.785 52.4047 116.039 52.9848C115.458 53.4024 114.918 53.4441 114.337 53.4441C114.171 53.4441 113.839 53.4024 113.631 53.3606C113.216 53.2354 112.593 52.9848 112.219 52.4003L112.136 52.275L112.053 52.108L111.97 51.8992L111.929 51.607V46.0537C111.895 45.4803 111.726 45.3701 111.356 45.1288L111.355 45.128C111.267 45.0708 111.168 45.0062 111.057 44.9264L111.265 44.8429L113.507 44.0913C113.839 44.4253 113.88 44.8846 113.922 45.3439V49.6863C113.922 49.9786 114.129 50.1456 114.461 50.1456C114.835 50.1456 115.001 49.9786 115.043 49.6863C115.064 48.693 115.053 48.0634 115.042 47.4564C115.032 46.8642 115.022 46.2935 115.043 45.4274C115.084 44.8429 115.624 44.2166 116.122 44.0913ZM136.953 49.4691C135.589 48.2339 134.227 46.9997 134.057 46.346C133.858 45.845 133.871 45.2371 133.885 44.6292C133.888 44.4772 133.891 44.3251 133.891 44.1748C134.348 43.799 134.763 43.465 135.303 43.0475C135.296 43.2195 135.287 43.3926 135.278 43.5647C135.227 44.52 135.178 45.4459 135.635 46.012C136.963 47.3481 138.167 48.5589 139.371 49.728C139.828 50.2291 140.16 50.8971 139.87 51.5652C139.745 51.8575 139.537 52.2333 139.33 52.4838C139.371 51.8575 139.122 51.4817 138.749 51.1477C138.232 50.6278 137.592 50.0483 136.953 49.4691ZM132.48 42.964H129.532V51.7323H132.48V42.964ZM136.133 43.7572C136.294 43.5951 136.397 43.4821 136.502 43.3659C136.614 43.2426 136.73 43.1155 136.922 42.9221L137.669 43.7989V46.3041C138.539 45.8842 138.505 44.7604 138.471 43.6456C138.465 43.4302 138.458 43.2152 138.458 43.0056C139.081 43.5066 139.413 43.7989 139.994 44.3835C140.268 45.6243 139.722 46.4099 139.149 47.2334C139.028 47.4074 138.906 47.5835 138.79 47.7655L136.175 45.2185V43.7572H136.133ZM115.022 34.2162L115.022 34.2123C115.001 33.6501 114.98 33.0875 114.96 32.4004C115.375 32.2752 115.79 32.5675 116.122 32.818C116.081 34.5232 116.081 34.5299 116.039 36.3048L116.039 36.3214L116.039 36.3253H115.084V36.033C115.063 35.3441 115.043 34.7799 115.022 34.2162ZM129.034 23.1311L130.321 21.7115L129.823 20.7512C129.559 21.03 129.374 21.2251 129.22 21.3877C128.913 21.7119 128.729 21.9068 128.286 22.3796L129.034 23.1311ZM141.074 41.3356V38.3711H130.902V41.3356H141.074ZM116.537 58.2876C116.292 57.1771 116.989 56.4895 117.703 55.7853C118.198 55.2981 118.7 54.8028 118.904 54.154C118.964 53.7702 119.019 53.3837 119.073 52.9972L119.073 52.9962C119.392 50.7339 119.71 48.4689 121.27 46.7218C121.436 42.8805 122.682 39.4567 125.422 36.6592C125.337 36.0643 125.138 35.527 124.941 34.9953C124.848 34.7433 124.755 34.4925 124.674 34.2375C124.301 34.2375 124.093 34.154 123.761 33.8617C123.512 33.5277 123.429 33.2772 123.387 32.8596C122.433 34.0287 121.27 35.3648 119.983 36.1582C119.752 36.2743 119.486 36.0316 119.117 35.6961L119.028 35.6154C118.453 35.1583 118.048 34.49 117.65 33.8315C116.957 32.6854 116.281 31.5692 114.752 31.6488C113.854 31.3362 113.732 30.3881 113.621 29.5253C113.598 29.3508 113.576 29.1798 113.548 29.0183C113.963 28.726 114.627 28.726 115.084 28.9348C115.957 29.3979 116.659 30.1741 117.382 30.9726C117.898 31.5419 118.423 32.1225 119.028 32.6091C119.152 32.7059 119.271 32.8164 119.389 32.9255C119.626 33.1459 119.858 33.3604 120.108 33.4442C121.021 32.6509 121.81 31.941 122.433 30.6884C122.889 29.9786 123.595 29.6863 124.425 29.6446L125.007 28.9765L124.716 27.2646C124.135 26.5131 123.637 25.7197 123.263 24.8847C123.285 24.7832 123.306 24.68 123.327 24.5757C123.507 23.6927 123.7 22.7397 124.591 22.2542C124.888 22.0553 125.166 22.1596 125.434 22.2601C125.728 22.3707 126.011 22.4768 126.294 22.1707C126.667 22.0872 126.999 22.2124 127.29 22.4212L127.335 22.4972L127.363 22.5453L127.433 22.6632C127.804 23.2859 128.167 23.8945 128.203 24.6341C127.982 25.339 127.662 25.9778 127.332 26.6387C127.29 26.7217 127.249 26.805 127.207 26.8888C127.153 26.9965 127.048 27.0521 126.936 27.1115C126.874 27.1444 126.809 27.1783 126.75 27.2229L126.763 27.273C126.842 27.594 126.929 27.9452 127.165 28.1832C127.456 28.2667 127.747 28.3085 128.079 28.225C128.369 27.3481 129.283 26.9724 130.03 26.7636L131.732 25.678C131.619 25.0881 131.721 24.5329 131.822 23.9808C131.944 23.3214 132.064 22.6664 131.815 21.9619C130.86 21.5026 130.57 20.417 130.362 19.582C130.528 19.0392 130.777 18.4964 131.151 18.0371L131.193 18.1206C132.106 19.2062 132.936 20.2918 133.227 21.6279C133.393 23.3398 133.559 25.0934 133.435 26.8471C132.74 27.5453 131.95 28.0264 131.155 28.5104C130.904 28.6631 130.653 28.8163 130.404 28.9765L129.656 30.4379C129.607 31.3569 129.425 32.202 129.243 33.0523C129.118 33.6313 128.993 34.2133 128.909 34.822C129.573 36.6175 130.321 38.9974 129.781 40.6258C129.458 41.4062 128.807 41.8827 128.221 42.3118C128.055 42.4336 127.894 42.5517 127.747 42.6717L126.045 44.0496C127.478 45.6288 127.452 47.3775 127.421 49.5043C127.414 49.9642 127.407 50.4417 127.415 50.939C127.415 51.1989 127.591 51.44 127.769 51.6842C128.049 52.0674 128.335 52.4585 127.954 52.9431C127.832 53.1324 127.695 53.3151 127.558 53.4978L127.557 53.4986C127.089 54.1218 126.622 54.7439 126.75 55.6154C126.211 56.4922 124.965 56.701 124.342 56.701C124.218 56.701 124.093 56.6175 124.093 56.4922C124.163 56.2333 124.313 56.001 124.459 55.7727C124.573 55.596 124.685 55.4218 124.758 55.2396C125.048 54.7915 125.14 54.2707 125.231 53.7536C125.335 53.1623 125.438 52.5758 125.837 52.1081C125.639 51.4586 125.408 50.8217 125.177 50.1841C124.679 48.8133 124.18 47.439 124.01 45.9285L123.969 45.8033C123.471 46.8053 123.72 47.8074 124.01 48.6008C123.872 48.7775 123.732 48.9534 123.593 49.129L123.589 49.1344L123.582 49.1428C122.016 51.1193 120.481 53.055 120.481 55.6571C120.214 56.1208 119.914 56.5685 119.615 57.0154C119.079 57.8159 118.544 58.6142 118.198 59.4985C118.032 59.7072 117.658 59.5402 117.451 59.415C116.828 59.0392 116.703 58.7469 116.537 58.2876ZM136.974 50.697C136.335 50.1177 135.695 49.5382 135.178 49.0184C134.805 48.6426 134.555 48.3085 134.597 47.6822C134.389 47.9328 134.182 48.3085 134.057 48.6008C133.767 49.2689 134.099 49.9369 134.555 50.438C135.759 51.6065 136.962 52.8166 138.29 54.1519L138.292 54.154C138.749 54.7201 138.7 55.6459 138.649 56.6013C138.64 56.7734 138.63 56.9465 138.624 57.1186C139.164 56.701 139.579 56.367 140.036 55.9912C140.036 55.8409 140.039 55.6889 140.042 55.5369C140.056 54.929 140.069 54.321 139.87 53.82C139.7 53.1663 138.338 51.9321 136.974 50.697ZM137.425 56.7582C137.313 56.8815 137.197 57.0086 137.005 57.202L136.258 56.3252V53.8199C135.388 54.2399 135.422 55.3637 135.456 56.4785C135.462 56.6939 135.469 56.9089 135.469 57.1185C134.846 56.6174 134.514 56.3252 133.933 55.7406C133.653 54.4753 134.227 53.6834 134.836 52.8419C134.951 52.6837 135.067 52.5237 135.178 52.3586L137.794 54.9055V56.3669C137.633 56.5285 137.531 56.6412 137.426 56.757L137.425 56.7582ZM133.458 63.9977L133.434 64.0497C133.144 64.5507 132.687 65.0517 132.189 65.2605C131.317 65.7615 129.947 65.6363 129.158 65.0517C128.411 64.5089 127.954 63.7156 127.954 62.9223H133.767C133.727 63.404 133.648 63.577 133.458 63.9977Z" fill="#999999"/>
<path d="M126.958 76.7846C126.916 75.1562 128.494 74.3629 129.49 73.2773C129.74 73.0268 129.864 72.5258 129.656 72.0665C129.532 71.8159 129.366 71.6907 129.158 71.6072C128.826 71.5237 128.494 71.5654 128.286 71.7742C127.996 72.0665 127.913 72.4422 127.913 72.8598L126.833 72.9433C126.75 72.317 126.875 71.7324 127.249 71.2731C127.747 70.7303 128.536 70.5633 129.283 70.6051C129.864 70.6886 130.57 71.0644 130.819 71.6907C131.151 72.3587 131.027 73.2356 130.528 73.8201C129.864 74.5299 129.034 74.9057 128.494 75.699L131.276 75.532C131.276 75.8661 131.317 76.2001 131.317 76.5341L126.958 76.7846Z" fill="#999999"/>
<path d="M117.077 69.812V69.8537L115.25 75.4487L114.088 75.0729L115.333 71.2316V71.1481C114.877 70.9811 114.295 70.8141 113.88 70.647L114.129 69.9372C114.71 70.1043 115.333 70.1878 115.831 69.7702C115.997 69.645 116.039 69.6032 116.164 69.478L117.077 69.812Z" fill="#999999"/>
<path d="M139.122 72.9016C138.956 72.3588 138.666 71.8996 138.043 71.7325L137.669 71.649C138.043 71.3985 138.375 70.8557 138.25 70.3547C138.167 69.7701 137.752 69.3943 137.254 69.2273C136.797 69.1021 136.258 69.1021 135.759 69.2273C135.261 69.3526 134.763 69.5613 134.431 69.8954C134.057 70.3129 133.85 70.8557 134.057 71.3985C134.182 71.8996 134.721 72.1918 135.178 72.2753L134.888 72.5259C134.431 72.9851 134.348 73.4862 134.472 74.0707C134.597 74.6971 135.095 75.1563 135.718 75.3651C136.175 75.4904 136.714 75.4904 137.254 75.3651C137.794 75.2398 138.292 74.9893 138.624 74.6553C139.081 74.1543 139.288 73.5279 139.122 72.9016ZM135.303 71.315C135.178 71.0645 135.178 70.6469 135.427 70.4382C135.552 70.2711 135.759 70.1877 136.008 70.1041C136.216 70.0624 136.465 70.0624 136.673 70.1041C137.005 70.1877 137.171 70.5634 137.171 70.8557C137.171 71.0645 137.088 71.2315 136.922 71.3985C136.797 71.5238 136.59 71.6073 136.382 71.649C136.175 71.6908 135.967 71.7325 135.759 71.6908C135.552 71.6073 135.386 71.482 135.303 71.315ZM137.711 73.9872C137.545 74.1542 137.296 74.2795 137.005 74.363C136.714 74.4465 136.424 74.4465 136.216 74.363C135.925 74.2378 135.718 74.029 135.676 73.7785C135.552 73.4027 135.676 72.9851 136.008 72.7764C136.133 72.6929 136.341 72.5676 136.59 72.5259C136.797 72.4841 137.046 72.4841 137.212 72.4841C137.628 72.5259 137.877 72.8599 137.96 73.2357C138.001 73.4862 137.918 73.7785 137.711 73.9872Z" fill="#999999"/>
<path d="M124.093 74.9893C124.135 74.4047 123.969 73.9037 123.429 73.5696L123.097 73.4026C123.512 73.2774 124.01 72.8598 124.01 72.3588C124.093 71.7742 123.803 71.3149 123.387 70.9809C123.014 70.7304 122.474 70.5634 121.976 70.5634C121.436 70.5216 120.938 70.6051 120.523 70.8139C120.066 71.1062 119.692 71.5237 119.734 72.1083C119.692 72.6093 120.108 73.0686 120.523 73.2774L120.191 73.4026C119.609 73.6949 119.402 74.1959 119.36 74.7387C119.319 75.365 119.651 75.9913 120.149 76.3254C120.564 76.5759 121.062 76.7429 121.602 76.7847C122.142 76.8264 122.682 76.7429 123.097 76.5341C123.678 76.2001 124.052 75.6156 124.093 74.9893ZM120.896 72.317C120.855 72.0247 120.938 71.649 121.27 71.4819C121.436 71.3984 121.685 71.3567 121.934 71.3567C122.183 71.3567 122.391 71.4402 122.557 71.5655C122.848 71.7742 122.931 72.15 122.806 72.4423C122.723 72.651 122.599 72.7763 122.433 72.8598C122.266 72.9433 122.059 72.9851 121.81 72.9433C121.602 72.9433 121.395 72.8598 121.229 72.7763C121.062 72.6928 120.938 72.5258 120.896 72.317ZM122.433 75.6156C122.225 75.7408 121.934 75.7826 121.644 75.7826C121.353 75.7826 121.062 75.6991 120.896 75.5321C120.647 75.365 120.523 75.0728 120.523 74.7805C120.523 74.4047 120.772 74.0289 121.146 73.9037C121.312 73.8619 121.519 73.8202 121.768 73.8202C122.017 73.8202 122.225 73.9037 122.35 73.9454C122.723 74.1124 122.889 74.4882 122.848 74.9057C122.848 75.198 122.682 75.4903 122.433 75.6156Z" fill="#999999"/>
<path d="M149.796 17.0669L144.383 19.4154L144.876 20.5656L150.29 18.2171L149.796 17.0669Z" fill="#999999"/>
<path d="M129.864 8.80985L128.453 2.71381L129.74 2.83907C129.989 4.3422 130.279 6.0541 130.57 7.34847C131.11 6.17937 131.732 4.55097 132.272 3.13135L133.518 3.25661L130.944 8.93511L129.864 8.80985Z" fill="#999999"/>
<path d="M106.822 12.3171L105.535 14.6553L104.414 14.0708L105.909 11.315L105.079 10.8557L102.961 14.6553L108.109 17.5363L110.227 13.7367L109.355 13.2775L107.86 15.9914L106.407 15.1564L107.736 12.8182L106.822 12.3171Z" fill="#999999"/>
<path d="M103.709 37.4946C103.418 36.8683 102.754 36.6177 102.048 36.6595C101.467 36.743 101.01 37.1188 100.761 37.7451C100.678 37.3693 100.346 36.91 99.7645 36.8683C99.1833 36.7848 98.602 36.9518 98.3114 37.4528C97.9378 37.9539 98.1038 40.1668 98.0623 41.4194H103.916V41.0019C103.875 38.6637 104.041 38.3714 103.709 37.4946ZM100.387 40.2085H98.9342C98.9757 38.8307 98.7681 38.1209 99.5984 38.0374C100.097 37.9956 100.221 38.1209 100.346 38.4131C100.429 38.7054 100.387 38.9977 100.387 40.2085ZM102.92 40.1668H101.259C101.301 38.8307 101.093 38.0791 101.882 37.9121C102.172 37.8286 102.505 37.8703 102.671 38.0791C103.044 38.4131 102.92 38.9559 102.92 40.1668Z" fill="#999999"/>
<path d="M150.332 21.5446L151.245 21.2941L152.449 25.9288L151.494 26.1793L151.079 24.4674L146.346 25.6782L146.014 24.4674L150.747 23.2565L150.332 21.5446Z" fill="#999999"/>
<path d="M120.564 9.14412C119.9 9.26938 119.236 9.18587 118.696 8.85184C118.239 8.55956 118.073 8.22553 117.99 7.808L117.326 3.59088L118.53 3.38211L119.194 7.59923C119.277 7.93326 119.568 8.14203 119.9 8.22554C120.066 8.26729 120.274 8.26729 120.481 8.22554" fill="#999999"/>
<path d="M120.564 9.14412C121.229 9.06061 121.851 8.7681 122.267 8.26706C122.64 7.84952 122.682 7.47374 122.64 7.01445L121.934 2.83908L120.73 3.04785L121.395 7.26497C121.436 7.599 121.229 7.93303 120.938 8.05829C120.772 8.1418 120.606 8.2253 120.398 8.2253" fill="#999999"/>
<path d="M153.03 29.9371L146.927 28.6845L147.094 29.8954L148.422 30.1459L148.713 32.2754L147.509 32.8599L147.675 34.0708L153.238 31.1898L153.03 29.9371ZM149.626 31.7743L149.418 30.3129L151.951 30.6887L149.626 31.7743Z" fill="#999999"/>
<path d="M152.283 40.1252L152.408 40.0834L152.491 40.0417C152.864 39.8329 152.989 39.2901 152.947 38.8726C152.947 38.455 152.781 37.9958 152.408 37.8705C152.2 37.8287 151.951 37.787 151.785 37.9958C151.121 38.9978 151.577 41.0855 149.875 41.4613C149.128 41.5866 148.464 41.2525 148.09 40.668C147.55 39.7077 147.509 38.2045 148.131 37.2859C148.505 36.7849 149.003 36.4926 149.585 36.4926L149.668 37.62C149.294 37.6617 148.92 37.8705 148.754 38.2045C148.505 38.7891 148.547 39.7494 149.003 40.0834C149.169 40.2505 149.543 40.2505 149.709 40.1252C150.373 39.6242 150.249 38.4133 150.581 37.5782C150.706 37.2442 150.996 36.8684 151.328 36.7014C151.951 36.4509 152.698 36.5344 153.197 37.0354C153.985 37.787 154.027 39.2484 153.653 40.1252C153.446 40.7515 152.781 41.169 152.117 41.2525L152.034 40.1252H152.283Z" fill="#999999"/>
<path d="M104.705 31.1899C104.622 31.858 104.331 32.4843 103.833 32.9018C103.418 33.2776 103.044 33.3194 102.588 33.2776L98.3944 32.6095L98.602 31.3987L102.795 32.0668C103.127 32.1085 103.459 31.8997 103.584 31.6075C103.667 31.4405 103.75 31.2734 103.75 31.0647" fill="#999999"/>
<path d="M104.705 31.1481C104.83 30.4801 104.746 29.812 104.414 29.2692C104.124 28.8099 103.792 28.6429 103.376 28.5594L99.1417 27.8914L98.9342 29.1022L103.127 29.7703C103.459 29.812 103.667 30.1461 103.75 30.4801C103.792 30.6471 103.792 30.8559 103.75 31.0647" fill="#999999"/>
<path d="M111.265 5.80366L110.185 6.47172L111.472 12.6095L112.51 11.9832L112.22 10.6471L114.046 9.51974L115.084 10.3966L116.122 9.77026L111.265 5.80366ZM111.97 9.645L111.306 7.13978L113.216 8.89343L111.97 9.645Z" fill="#999999"/>
<path d="M139.87 7.76594L137.379 6.7221L137.877 5.51124L140.741 6.7221L141.115 5.80351L137.088 4.13337L134.846 9.6031L138.832 11.2732L139.205 10.3964L136.341 9.18556L136.963 7.64068L139.496 8.68452L139.87 7.76594Z" fill="#999999"/>
<path d="M103.999 20.8768C103.999 20.4593 103.958 20.1253 103.626 19.7912C103.293 19.4572 102.795 19.2902 102.297 19.3319C100.968 19.5407 100.802 21.0438 100.097 23.4656L105.743 25.1775L106.075 24.0084L103.833 23.3403L103.75 23.2985C103.916 22.7557 104.124 22.0459 104.248 21.9207C104.663 20.9603 106.158 21.9207 106.739 21.7954L107.071 20.6263C106.034 20.6681 104.705 19.7495 103.999 20.8768ZM102.795 23.0063L101.301 22.547C101.633 21.5449 101.757 20.5011 102.463 20.5846C102.754 20.6263 102.961 20.7098 103.127 20.9186C103.418 21.2526 103.086 22.0459 102.795 23.0063Z" fill="#999999"/>
<path d="M145.184 9.10234L140.492 12.6932L141.24 13.6952L143.108 12.2756L143.191 12.2339C143.523 12.6932 143.98 13.2777 144.021 13.4447C144.561 14.3215 142.9 14.9896 142.651 15.5324L143.399 16.4927C143.938 15.6577 145.474 15.0731 144.976 13.8205C145.308 14.071 145.599 14.238 146.056 14.1545C146.512 14.071 146.927 13.7787 147.218 13.3195C147.799 12.1086 146.678 11.1065 145.184 9.10234ZM146.056 12.7767C145.848 12.9854 145.682 13.1107 145.391 13.1107C144.935 13.1524 144.561 12.4009 143.938 11.6076L145.184 10.6472C145.765 11.5241 146.512 12.2339 146.056 12.7767Z" fill="#999999"/>
<path d="M7.43145 17.3279H8.75998V23.7997H7.43145V17.3279Z" fill="#999999"/>
<path d="M12.4135 19.1233C12.4135 18.7893 12.3719 18.5387 12.2889 18.4135C12.2059 18.2882 12.0398 18.2047 11.7907 18.2047C11.5831 18.2047 11.4171 18.2882 11.2925 18.4135C11.168 18.5387 11.1264 18.7475 11.1264 18.998C11.1264 19.2068 11.2095 19.3738 11.334 19.4991C11.4586 19.6243 11.7077 19.7913 12.0398 19.9584C12.7041 20.2506 13.1608 20.5847 13.4099 20.8769C13.659 21.1692 13.7835 21.545 13.7835 21.9625C13.7835 22.6306 13.6174 23.0899 13.2853 23.4239C12.9532 23.7579 12.455 23.925 11.7492 23.925C11.0019 23.925 10.5037 23.7997 10.1716 23.5074C9.88095 23.2151 9.71488 22.7559 9.71488 22.0878V21.8373H11.0019V22.046C11.0019 22.3383 11.0434 22.5888 11.168 22.7559C11.2925 22.9229 11.4586 23.0064 11.7077 23.0064C11.9568 23.0064 12.1228 22.9229 12.2474 22.7976C12.3719 22.6723 12.4135 22.4636 12.4135 22.1713C12.4135 21.9625 12.3304 21.7955 12.2059 21.6285C12.0813 21.4615 11.8322 21.2945 11.4586 21.1275C10.8358 20.8352 10.3791 20.5429 10.13 20.2506C9.88095 19.9584 9.7564 19.6243 9.7564 19.2068C9.7564 18.5805 9.92246 18.1212 10.2546 17.7872C10.5867 17.4949 11.0849 17.3279 11.7907 17.3279C12.4965 17.3279 12.9532 17.4531 13.2438 17.7454C13.4929 18.0377 13.659 18.4552 13.659 19.0815V19.4156H12.4135V19.1233Z" fill="#999999"/>
<path d="M15.3196 23.3821C15.029 23.048 14.8629 22.5052 14.8629 21.6702V18.9979C14.8629 18.4134 15.029 17.9541 15.3611 17.6618C15.6933 17.3695 16.1915 17.2025 16.8557 17.2025C17.52 17.2025 18.0182 17.3695 18.3503 17.6618C18.6825 17.9541 18.8485 18.4134 18.8485 18.9979V21.6702C18.8485 22.4635 18.6825 23.048 18.3918 23.3821C18.1012 23.7161 17.5615 23.8831 16.8557 23.8831C16.1084 23.8831 15.6102 23.7161 15.3196 23.3821ZM17.3954 22.6722C17.4785 22.5052 17.5615 22.213 17.5615 21.7537V19.0814C17.5615 18.7892 17.52 18.5804 17.3954 18.4134C17.2709 18.2464 17.1048 18.2046 16.8972 18.2046C16.6897 18.2046 16.4821 18.2881 16.399 18.4134C16.316 18.5386 16.1915 18.7892 16.1915 19.0814V21.7537C16.1915 22.1712 16.233 22.5052 16.3575 22.6722C16.4406 22.8393 16.6481 22.9228 16.8972 22.9228C17.1048 22.9228 17.3124 22.8393 17.3954 22.6722Z" fill="#999999"/>
<path d="M23.6229 23.8831C23.0002 23.8831 22.585 23.7578 22.3774 23.5073C22.1699 23.2568 22.0453 22.8392 22.0453 22.2129V22.0876H23.2493V22.2129C23.2493 22.5052 23.2493 22.714 23.3323 22.8392C23.4154 22.9645 23.5399 23.0062 23.706 23.0062C23.9136 23.0062 24.0796 22.9645 24.1627 22.8392C24.2457 22.714 24.2872 22.5052 24.2872 22.2129V21.0856C23.9966 21.2943 23.6645 21.4196 23.2493 21.4196C22.8341 21.4196 22.502 21.2943 22.3359 21.0438C22.1283 20.7933 22.0453 20.3757 22.0453 19.7912V19.1231C22.0453 18.4551 22.1699 17.9958 22.4605 17.7035C22.7511 17.4112 23.1663 17.286 23.789 17.286C24.4118 17.286 24.8684 17.4112 25.1175 17.6618C25.3666 17.9123 25.4912 18.3716 25.4912 18.9979V22.2547C25.4912 22.8392 25.3251 23.2568 25.0345 23.549C24.7439 23.8413 24.2872 23.8831 23.6229 23.8831ZM24.2457 18.9561C24.2457 18.6638 24.2042 18.4551 24.1211 18.3298C24.0381 18.2046 23.9136 18.121 23.7475 18.121C23.5814 18.121 23.4569 18.2046 23.3738 18.3298C23.2908 18.4551 23.2493 18.6638 23.2493 18.9561V19.8329C23.2493 20.0835 23.2908 20.2505 23.3738 20.3757C23.4569 20.4593 23.5814 20.5428 23.7475 20.5428C23.9136 20.5428 24.0381 20.501 24.1211 20.3757C24.2042 20.2505 24.2457 20.0835 24.2457 19.8747V18.9561Z" fill="#999999"/>
<path d="M26.8612 23.4655C26.5706 23.1732 26.4461 22.714 26.4461 22.0876V19.1231C26.4461 18.4968 26.5706 17.9958 26.8612 17.7035C27.1519 17.4112 27.567 17.286 28.1898 17.286C28.8125 17.286 29.2692 17.4112 29.5183 17.7035C29.8089 17.9958 29.9335 18.4551 29.9335 19.0814V22.0459C29.9335 22.6722 29.8089 23.1732 29.5183 23.4238C29.2277 23.716 28.8125 23.8413 28.1898 23.8413C27.567 23.8413 27.1519 23.7578 26.8612 23.4655ZM28.688 22.7975C28.7295 22.6304 28.771 22.2964 28.771 21.7119V19.1231C28.771 18.7474 28.7295 18.4551 28.6465 18.3298C28.5634 18.2046 28.4389 18.121 28.2313 18.121C28.0237 18.121 27.8992 18.2046 27.8161 18.3298C27.7331 18.4551 27.6916 18.7474 27.6916 19.1231V21.7119C27.6916 22.2547 27.7331 22.6304 27.7746 22.7557C27.8576 22.9227 27.9822 23.0062 28.2313 23.0062C28.4804 23.0062 28.6049 22.9227 28.688 22.7975Z" fill="#999999"/>
<path d="M31.3451 23.4655C31.0544 23.1732 30.9299 22.714 30.9299 22.0876V19.1231C30.9299 18.4968 31.0544 17.9958 31.3451 17.7035C31.6357 17.4112 32.0508 17.286 32.6736 17.286C33.2963 17.286 33.753 17.4112 34.0021 17.7035C34.2927 17.9958 34.4173 18.4551 34.4173 19.0814V22.0459C34.4173 22.6722 34.2927 23.1732 34.0021 23.4238C33.7115 23.716 33.2963 23.8413 32.6736 23.8413C32.0508 23.8413 31.6357 23.7578 31.3451 23.4655ZM33.1718 22.7975C33.2133 22.6304 33.2548 22.2964 33.2548 21.7119V19.1231C33.2548 18.7474 33.2133 18.4551 33.1303 18.3298C33.0472 18.2046 32.9227 18.121 32.7151 18.121C32.5075 18.121 32.383 18.2046 32.2999 18.3298C32.2169 18.4551 32.1754 18.7474 32.1754 19.1231V21.7119C32.1754 22.2547 32.2169 22.6304 32.2584 22.7557C32.3415 22.9227 32.466 23.0062 32.7151 23.0062C32.9642 23.0062 33.0888 22.9227 33.1718 22.7975Z" fill="#999999"/>
<path d="M36.8667 18.7473L36.7007 18.9143C36.5346 19.0813 36.2855 19.2484 35.9534 19.4154V18.3715C36.2025 18.2045 36.4101 18.0793 36.5346 17.954C36.6592 17.8287 36.8252 17.62 36.9913 17.3694H38.0707V23.7995H36.8252V18.7473H36.8667Z" fill="#999999"/>
<path d="M41.1845 21.0439H42.5546V21.9207H41.1845V21.0439Z" fill="#999999"/>
<path d="M44.8795 17.3279H46.208V23.7997H44.8795V17.3279Z" fill="#999999"/>
<path d="M49.8615 19.1233C49.8615 18.7893 49.82 18.5387 49.737 18.4135C49.6539 18.2882 49.4879 18.2047 49.2388 18.2047C49.0312 18.2047 48.8651 18.2882 48.7406 18.4135C48.616 18.5387 48.5745 18.7475 48.5745 18.998C48.5745 19.2068 48.6575 19.3738 48.7821 19.4991C48.9066 19.6243 49.1557 19.7913 49.4879 19.9584C50.1521 20.2506 50.6088 20.5847 50.8579 20.8769C51.107 21.1692 51.2316 21.545 51.2316 21.9625C51.2316 22.6306 51.0655 23.0899 50.7334 23.4239C50.4012 23.7579 49.903 23.925 49.1973 23.925C48.45 23.925 47.9518 23.7997 47.6196 23.5074C47.329 23.2151 47.1629 22.7559 47.1629 22.0878V21.8373H48.45V22.046C48.45 22.3383 48.4915 22.5888 48.616 22.7559C48.7406 22.9229 48.9066 23.0064 49.1557 23.0064C49.4048 23.0064 49.5709 22.9229 49.6955 22.7976C49.82 22.6723 49.8615 22.4636 49.8615 22.1713C49.8615 21.9625 49.7785 21.7955 49.6539 21.6285C49.5294 21.4615 49.2803 21.2945 48.9067 21.1275C48.2839 20.8352 47.8272 20.5429 47.5781 20.2506C47.329 19.9584 47.2045 19.6243 47.2045 19.2068C47.2045 18.5805 47.3705 18.1212 47.7027 17.7872C48.0348 17.4949 48.533 17.3279 49.2388 17.3279C49.9446 17.3279 50.4012 17.4531 50.6919 17.7454C50.941 18.0377 51.107 18.4552 51.107 19.0815V19.4156H49.8615V19.1233Z" fill="#999999"/>
<path d="M52.7676 23.3821C52.477 23.048 52.311 22.5052 52.311 21.6702V18.9979C52.311 18.4134 52.477 17.9541 52.8092 17.6618C53.1413 17.3695 53.6395 17.2025 54.3038 17.2025C54.968 17.2025 55.4662 17.3695 55.7984 17.6618C56.1305 17.9541 56.2966 18.4134 56.2966 18.9979V21.6702C56.2966 22.4635 56.1305 23.048 55.8399 23.3821C55.5493 23.7161 55.0095 23.8831 54.3038 23.8831C53.5565 23.8831 53.0582 23.7161 52.7676 23.3821ZM54.8435 22.6722C54.9265 22.5052 55.0095 22.213 55.0095 21.7537V19.0814C55.0095 18.7892 54.968 18.5804 54.8435 18.4134C54.7189 18.2464 54.5529 18.2046 54.3453 18.2046C54.1377 18.2046 53.9301 18.2881 53.8471 18.4134C53.764 18.5386 53.681 18.7892 53.681 19.0814V21.7537C53.681 22.1712 53.7225 22.5052 53.8471 22.6722C53.9716 22.8393 54.1377 22.9228 54.3868 22.9228C54.5529 22.9228 54.7604 22.8393 54.8435 22.6722Z" fill="#999999"/>
<path d="M60.1992 18.7473L60.0331 18.9143C59.867 19.0813 59.6179 19.2484 59.2858 19.4154V18.3715C59.5349 18.2045 59.7425 18.0793 59.867 17.954C59.9916 17.8287 60.1577 17.62 60.3237 17.3694H61.4032V23.7995H60.1992V18.7473Z" fill="#999999"/>
<path d="M63.0638 22.4216V21.169L64.683 17.3694H66.4267V21.5448H67.0909V22.4216H66.4267V23.7995H65.1812V22.4216H63.0638ZM65.1812 21.503V18.455L64.0602 21.1273L63.8941 21.503H65.1812Z" fill="#999999"/>
<path d="M68.1704 23.4655C67.8798 23.1732 67.7552 22.714 67.7552 22.0876V19.1231C67.7552 18.4968 67.8798 17.9958 68.1704 17.7035C68.461 17.4112 68.8762 17.286 69.4989 17.286C70.1217 17.286 70.5784 17.4112 70.8275 17.7035C71.1181 17.9958 71.2426 18.4551 71.2426 19.0814V22.0459C71.2426 22.6722 71.1181 23.1732 70.8275 23.4238C70.5368 23.716 70.1217 23.8413 69.4989 23.8413C68.8762 23.8413 68.4195 23.7578 68.1704 23.4655ZM69.9556 22.7975C69.9971 22.6304 70.0386 22.2964 70.0386 21.7119V19.1231C70.0386 18.7474 69.9971 18.4551 69.9141 18.3298C69.8311 18.2046 69.7065 18.121 69.4989 18.121C69.2913 18.121 69.1668 18.2046 69.0837 18.3298C69.0007 18.4551 68.9592 18.7474 68.9592 19.1231V21.7119C68.9592 22.2547 69.0007 22.6304 69.0422 22.7557C69.1253 22.9227 69.2498 23.0062 69.4989 23.0062C69.748 23.0062 69.8726 22.9227 69.9556 22.7975Z" fill="#999999"/>
<path d="M72.6126 23.4655C72.322 23.1732 72.1975 22.714 72.1975 22.0876V19.1231C72.1975 18.4968 72.322 17.9958 72.6126 17.7035C72.9032 17.4112 73.3184 17.286 73.9412 17.286C74.5639 17.286 75.0206 17.4112 75.2697 17.7035C75.5603 17.9958 75.6849 18.4551 75.6849 19.0814V22.0459C75.6849 22.6722 75.5603 23.1732 75.2697 23.4238C74.9791 23.716 74.5639 23.8413 73.9412 23.8413C73.3184 23.8413 72.9032 23.7578 72.6126 23.4655ZM74.4394 22.7975C74.4809 22.6304 74.5224 22.2964 74.5224 21.7119V19.1231C74.5224 18.7474 74.4809 18.4551 74.3978 18.3298C74.3148 18.2046 74.1903 18.121 73.9827 18.121C73.7751 18.121 73.6505 18.2046 73.5675 18.3298C73.4845 18.4551 73.443 18.7474 73.443 19.1231V21.7119C73.443 22.2547 73.4845 22.6304 73.526 22.7557C73.609 22.9227 73.7336 23.0062 73.9827 23.0062C74.2318 23.0062 74.3563 22.9227 74.4394 22.7975Z" fill="#999999"/>
<path d="M78.1343 18.7473L77.9683 18.9143C77.8022 19.0813 77.5531 19.2484 77.221 19.4154V18.3715C77.4701 18.2045 77.6777 18.0793 77.8022 17.954C77.9268 17.8287 78.0928 17.62 78.2589 17.3694H79.3383V23.7995H78.0928V18.7473H78.1343Z" fill="#999999"/>
<path d="M7.88813 33.8204C7.59751 33.4864 7.43145 32.9436 7.43145 32.1085V29.4363C7.43145 28.8517 7.59751 28.3924 7.92965 28.1002C8.26178 27.8079 8.75998 27.6409 9.42425 27.6409C10.0885 27.6409 10.5867 27.8079 10.9188 28.1002C11.251 28.3924 11.417 28.8517 11.417 29.4363V32.1085C11.417 32.9018 11.251 33.4864 10.9604 33.8204C10.6697 34.1545 10.13 34.3215 9.42425 34.3215C8.71846 34.3215 8.22026 34.1545 7.88813 33.8204ZM10.0055 33.1106C10.0885 32.9436 10.1715 32.6513 10.1715 32.192V29.5198C10.1715 29.2275 10.13 29.0188 10.0055 28.8517C9.88093 28.6847 9.71486 28.643 9.50728 28.643C9.2997 28.643 9.09211 28.7265 9.00908 28.8517C8.92605 28.977 8.84301 29.2275 8.84301 29.5198V32.192C8.84301 32.6096 8.88453 32.9436 9.00908 33.1106C9.09211 33.2776 9.2997 33.3611 9.5488 33.3611C9.71486 33.3611 9.88093 33.2776 10.0055 33.1106Z" fill="#999999"/>
<path d="M12.6625 27.7662H13.9911V30.4385H15.2366V27.7662H16.5651V34.2381H15.2366V31.3988H13.9911V34.2381H12.6625V27.7662Z" fill="#999999"/>
<path d="M20.3432 29.5617C20.3432 29.2276 20.3016 28.9771 20.2186 28.8518C20.1356 28.7266 19.9695 28.6431 19.7204 28.6431C19.5128 28.6431 19.3468 28.7266 19.2222 28.8518C19.0977 28.9771 19.0561 29.1859 19.0561 29.4364C19.0561 29.6452 19.1392 29.8122 19.2637 29.9374C19.3883 30.0627 19.6374 30.2297 19.9695 30.3967C20.6338 30.689 21.0905 31.023 21.3396 31.3153C21.5887 31.6076 21.7132 31.9834 21.7132 32.4009C21.7132 33.069 21.5471 33.5283 21.215 33.8623C20.8829 34.1963 20.3847 34.3633 19.6789 34.3633C18.9316 34.3633 18.4334 34.2381 18.1013 33.9458C17.8106 33.6535 17.6446 33.1942 17.6446 32.5262V32.2757H18.9316V32.4844C18.9316 32.7767 18.9731 33.0272 19.0977 33.1942C19.2222 33.3612 19.3883 33.4448 19.6374 33.4448C19.8865 33.4448 20.0525 33.3612 20.1771 33.236C20.3016 33.1107 20.3432 32.902 20.3432 32.6097C20.3432 32.4009 20.2601 32.2339 20.1356 32.0669C20.011 31.8999 19.7619 31.7328 19.3883 31.5658C18.7655 31.2736 18.3088 30.9813 18.0597 30.689C17.8106 30.3967 17.6861 30.0627 17.6861 29.6452C17.6861 29.0189 17.8522 28.5596 18.1843 28.2255C18.5164 27.9333 19.0146 27.7662 19.7204 27.7662C20.4262 27.7662 20.8829 27.8915 21.1735 28.1838C21.4226 28.4761 21.5887 28.8936 21.5887 29.5199V29.8539H20.3432V29.5617Z" fill="#999999"/>
<path d="M24.0381 27.7662H25.6157L27.0688 34.2381H25.7403L25.4912 32.8184H24.0796L23.8305 34.2381H22.585L24.0381 27.7662ZM24.2872 31.8581H25.3251L24.7854 28.9771L24.2872 31.8581Z" fill="#999999"/>
<path d="M30.4732 29.5615C30.4732 29.2275 30.4317 28.977 30.3486 28.8517C30.2656 28.7264 30.0995 28.6429 29.8504 28.6429C29.6429 28.6429 29.4768 28.7264 29.3522 28.8517C29.2277 28.977 29.1862 29.1857 29.1862 29.4362C29.1862 29.645 29.2692 29.812 29.3938 29.9373C29.5183 30.0625 29.7674 30.2296 30.0995 30.3966C30.7638 30.6889 31.2205 31.0229 31.4696 31.3152C31.7187 31.6074 31.8432 31.9832 31.8432 32.4008C31.8432 33.0688 31.6772 33.5281 31.345 33.8621C31.0129 34.1962 30.5147 34.3632 29.8089 34.3632C29.0616 34.3632 28.5634 34.2379 28.2313 33.9456C27.9822 33.6116 27.8161 33.1523 27.8161 32.4843V32.2337H29.1031V32.4425C29.1031 32.7348 29.1447 32.9853 29.2692 33.1523C29.3938 33.3193 29.5598 33.4028 29.8089 33.4028C30.058 33.4028 30.2241 33.3193 30.3486 33.1941C30.4732 33.0688 30.5147 32.86 30.5147 32.5678C30.5147 32.359 30.4317 32.192 30.3071 32.025C30.1826 31.858 29.9335 31.6909 29.5598 31.5239C28.9371 31.2316 28.4804 30.9394 28.2313 30.6471C27.9822 30.3548 27.8576 30.0208 27.8576 29.6033C27.8576 28.977 28.0237 28.5177 28.3558 28.1836C28.688 27.8914 29.1862 27.7243 29.892 27.7243C30.5977 27.7243 31.0544 27.8496 31.345 28.1419C31.5941 28.4342 31.7602 28.8517 31.7602 29.478V29.812H30.4732V29.5615Z" fill="#999999"/>
<path d="M36.327 29.1857L36.161 29.3527C35.9949 29.5197 35.7458 29.6867 35.4137 29.8537V28.8099C35.6628 28.6429 35.8703 28.5176 35.9949 28.3924C36.1194 28.2671 36.2855 28.0583 36.4516 27.8078H37.531V34.2379H36.327V29.1857Z" fill="#999999"/>
<path d="M41.9733 30.8559C42.1809 30.8977 42.3885 31.0229 42.5131 31.1482C42.7622 31.3987 42.8867 31.7745 42.8867 32.3173V32.6931C42.8867 33.2776 42.7622 33.6952 42.4715 33.9457C42.1809 34.1962 41.7658 34.3215 41.143 34.3215C40.5203 34.3215 40.1051 34.1962 39.8145 33.9457C39.5239 33.6952 39.3993 33.2776 39.3993 32.6931V32.3173C39.3993 31.7327 39.5239 31.357 39.8145 31.1482C39.939 31.0229 40.1466 30.9812 40.3957 30.8977C40.1881 30.8559 40.0221 30.7724 39.8975 30.6889C39.5654 30.4384 39.4408 30.0626 39.4408 29.5616V29.1858C39.4408 28.643 39.5654 28.2672 39.856 28.0167C40.1051 27.7661 40.5618 27.6409 41.1845 27.6409C41.8073 27.6409 42.2224 27.7661 42.5131 28.0167C42.8037 28.2672 42.9282 28.643 42.9282 29.2275V29.5616C42.9282 30.0626 42.8037 30.4384 42.5131 30.6471C42.347 30.7306 42.1809 30.8142 41.9733 30.8559ZM41.143 31.3152C40.9354 31.3152 40.7694 31.357 40.7278 31.4822C40.6863 31.6075 40.6033 31.8162 40.6033 32.1085V32.4843C40.6033 32.9018 40.6448 33.1524 40.6863 33.2359C40.7278 33.3611 40.8939 33.4029 41.143 33.4029C41.3921 33.4029 41.5167 33.3611 41.5997 33.2359C41.6412 33.1106 41.6827 32.8601 41.6827 32.4843V32.1085C41.6827 31.7745 41.6412 31.524 41.5997 31.4405C41.5582 31.357 41.3921 31.3152 41.143 31.3152ZM41.143 30.4384C41.3506 30.4384 41.5167 30.3966 41.5582 30.2714C41.6412 30.1461 41.6412 29.8956 41.6412 29.478V29.3945C41.6412 29.0605 41.5997 28.81 41.5582 28.7265C41.4751 28.6012 41.3506 28.5595 41.143 28.5595C40.9354 28.5595 40.8109 28.6012 40.7278 28.7265C40.6448 28.8517 40.6033 29.0605 40.6033 29.3945V29.5198C40.6033 29.8956 40.6448 30.1461 40.6863 30.2714C40.8109 30.3966 40.9354 30.4384 41.143 30.4384Z" fill="#999999"/>
<path d="M44.2567 33.9039C43.9661 33.6116 43.8415 33.1523 43.8415 32.526V29.5615C43.8415 28.9352 43.9661 28.4342 44.2567 28.1419C44.5473 27.8496 44.9625 27.7243 45.5852 27.7243C46.208 27.7243 46.6647 27.8496 46.9138 28.1419C47.2044 28.4342 47.3289 28.8934 47.3289 29.5198V32.4843C47.3289 33.1106 47.2044 33.6116 46.9138 33.8621C46.6232 34.1544 46.208 34.2797 45.5852 34.2797C44.9625 34.2797 44.5473 34.1962 44.2567 33.9039ZM46.0834 33.2358C46.125 33.0688 46.1665 32.7348 46.1665 32.1502V29.5615C46.1665 29.1857 46.125 28.8934 46.0419 28.7682C45.9589 28.6429 45.8343 28.5594 45.6268 28.5594C45.4192 28.5594 45.2946 28.6429 45.2116 28.7682C45.1286 28.8934 45.087 29.1857 45.087 29.5615V32.1502C45.087 32.693 45.1286 33.0688 45.1701 33.1941C45.2531 33.3611 45.3777 33.4446 45.6268 33.4446C45.8759 33.4446 46.0004 33.3611 46.0834 33.2358Z" fill="#999999"/>
<path d="M48.7406 33.9039C48.4499 33.6116 48.3254 33.1523 48.3254 32.526V29.5615C48.3254 28.9352 48.4499 28.4342 48.7406 28.1419C49.0312 27.8496 49.4463 27.7243 50.0691 27.7243C50.6918 27.7243 51.1485 27.8496 51.3976 28.1419C51.6883 28.4342 51.8128 28.8934 51.8128 29.5198V32.4843C51.8128 33.1106 51.6883 33.6116 51.3976 33.8621C51.107 34.1544 50.6918 34.2797 50.0691 34.2797C49.4463 34.2797 49.0312 34.1962 48.7406 33.9039ZM50.5673 33.2358C50.6088 33.0688 50.6503 32.7348 50.6503 32.1502V29.5615C50.6503 29.1857 50.6088 28.8934 50.5258 28.7682C50.4427 28.6429 50.3182 28.5594 50.1106 28.5594C49.903 28.5594 49.7785 28.6429 49.6954 28.7682C49.6124 28.8934 49.5709 29.1857 49.5709 29.5615V32.1502C49.5709 32.693 49.6124 33.0688 49.6539 33.1941C49.737 33.3611 49.8615 33.4446 50.1106 33.4446C50.3597 33.4446 50.4843 33.3611 50.5673 33.2358Z" fill="#999999"/>
<path d="M54.2623 29.1857L54.0962 29.3527C53.9302 29.5197 53.6811 29.6867 53.3489 29.8537V28.8099C53.598 28.6429 53.8056 28.5176 53.9302 28.3924C54.0547 28.2671 54.2208 28.0583 54.3869 27.8078H55.4663V34.2379H54.2208V29.1857H54.2623Z" fill="#999999"/>
<path d="M7.59751 45.2608H9.92244C10.7943 45.2608 11.417 45.3861 11.7492 45.6784C12.0813 45.9707 12.2474 46.4717 12.2474 47.265V47.098C12.2474 47.8913 12.0813 48.4341 11.7077 48.6847C11.5001 48.8517 11.1679 48.9769 10.7113 49.0187C11.1679 49.1022 11.5416 49.1857 11.7492 49.3945C12.1228 49.6867 12.2889 50.1878 12.2889 50.9393V50.7723C12.2889 51.6492 12.1228 52.2337 11.7907 52.526C11.4586 52.8183 10.7943 52.9853 9.79789 52.9853H7.59751V45.2608ZM9.17514 48.4759H9.50727C9.96396 48.4759 10.2961 48.3924 10.4206 48.2254C10.5867 48.0583 10.6697 47.7661 10.6697 47.3068V47.4738C10.6697 47.0563 10.5867 46.8057 10.4622 46.6387C10.3376 46.4717 10.047 46.43 9.63182 46.43H9.21666V48.4759H9.17514ZM9.17514 51.8579H9.67334C10.0885 51.8579 10.3791 51.7744 10.5452 51.6074C10.7113 51.4404 10.7528 51.1064 10.7528 50.6053V50.7723C10.7528 50.313 10.6697 50.0208 10.5452 49.8537C10.4206 49.7285 10.0885 49.645 9.63182 49.645H9.21666V51.8579H9.17514Z" fill="#999999"/>
<path d="M18.3088 50.8558C18.3088 51.6074 18.1012 52.192 17.7276 52.5677C17.3124 52.9435 16.7312 53.1523 15.9424 53.1523C15.1536 53.1523 14.5723 52.9435 14.1572 52.5677C13.742 52.192 13.5759 51.6074 13.5759 50.8558V45.2608H15.1536V50.9393C15.1536 51.3151 15.1951 51.6074 15.3196 51.7327C15.4442 51.8997 15.6518 51.9414 15.9424 51.9414C16.233 51.9414 16.4406 51.8579 16.5651 51.7327C16.6897 51.5656 16.7312 51.3151 16.7312 50.9393V45.2608H18.3088V50.8558Z" fill="#999999"/>
<path d="M19.7204 45.2608H22.0453C22.8757 45.2608 23.4569 45.4279 23.8306 45.7201C24.2042 46.0124 24.3703 46.5552 24.3703 47.265C24.3703 48.1001 24.2042 48.6429 23.8306 48.9352C23.6645 49.0604 23.3739 49.1857 23.0002 49.2692H23.0833C23.4984 49.2692 23.8306 49.3945 24.0797 49.6867C24.2872 49.979 24.4118 50.3965 24.3703 50.8976C24.3703 51.1899 24.3703 51.5239 24.3703 51.8579C24.3703 52.192 24.3703 52.4425 24.4118 52.6095C24.4118 52.7765 24.4533 52.9018 24.4948 52.9853H22.8757C22.8342 52.9018 22.8342 52.7765 22.8342 52.6095C22.8342 52.4425 22.8342 52.192 22.8342 51.8162V50.8558C22.8342 50.4801 22.7511 50.1878 22.6266 50.0208C22.4605 49.8537 22.2114 49.7702 21.8378 49.7702H21.3811V52.9435H19.8034V45.2608H19.7204ZM21.298 48.6429H21.7547C22.1699 48.6429 22.419 48.5594 22.5851 48.4341C22.7096 48.2671 22.7926 47.9748 22.7926 47.5155C22.7926 47.098 22.7096 46.8057 22.5851 46.6387C22.4605 46.4717 22.1699 46.3882 21.7962 46.3882H21.3396V48.6429H21.298Z" fill="#999999"/>
<path d="M25.5742 45.2608H29.4353V46.43H27.1519V48.4759H29.3522V49.645H27.1519V51.8997H29.4768V53.0688H25.5742V45.2608Z" fill="#999999"/>
<path d="M32.2169 45.2608H34.0437L35.7874 53.027H34.2928L34.0021 51.3569H32.3L31.9678 53.027H30.4732L32.2169 45.2608ZM32.5075 50.1878H33.7946L33.1718 46.7222L32.5075 50.1878Z" fill="#999999"/>
<path d="M41.6827 50.8558C41.6827 51.6074 41.4751 52.192 41.1015 52.5677C40.7278 52.9435 40.1051 53.1523 39.3163 53.1523C38.5274 53.1523 37.9462 52.9435 37.531 52.5677C37.1159 52.192 36.9498 51.6074 36.9498 50.8558V45.2608H38.5274V50.9393C38.5274 51.3151 38.569 51.6074 38.6935 51.7327C38.8181 51.8997 39.0256 51.9414 39.3163 51.9414C39.6069 51.9414 39.8145 51.8579 39.939 51.7327C40.0636 51.5656 40.1051 51.3151 40.1051 50.9393V45.2608H41.6827V50.8558Z" fill="#999999"/>
<path d="M45.2116 45.2608H46.7893L47.8687 51.2734L48.9066 45.2608H50.4012L48.7405 53.027H46.9138L45.2116 45.2608Z" fill="#999999"/>
<path d="M51.4392 45.2608H55.3002V46.43H53.0168V48.4759H55.2172V49.645H53.0168V51.8997H55.3417V53.0688H51.4392V45.2608Z" fill="#999999"/>
<path d="M56.5042 45.2608H58.8291C59.6594 45.2608 60.2407 45.4279 60.6143 45.7201C60.9879 46.0124 61.154 46.5552 61.154 47.265C61.154 48.1001 60.9879 48.6429 60.6143 48.9352C60.4482 49.0604 60.1576 49.1857 59.784 49.2692H59.867C60.2822 49.2692 60.6143 49.3945 60.8634 49.6867C61.071 49.979 61.1955 50.3965 61.154 50.8976C61.154 51.1899 61.154 51.5239 61.154 51.8579C61.154 52.192 61.154 52.4425 61.1955 52.6095C61.1955 52.7765 61.237 52.9018 61.2786 52.9853H59.7009C59.6594 52.9018 59.6594 52.7765 59.6594 52.6095C59.6594 52.4425 59.6594 52.192 59.6594 51.8162V50.8558C59.6594 50.4801 59.5764 50.1878 59.4518 50.0208C59.2858 49.8537 59.0367 49.7702 58.663 49.7702H58.2063V52.9435H56.5042V45.2608ZM58.0818 48.6429H58.5385C58.9536 48.6429 59.2027 48.5594 59.3688 48.4341C59.4934 48.2671 59.5764 47.9748 59.5764 47.5155C59.5764 47.098 59.4934 46.8057 59.3688 46.6387C59.2443 46.4717 58.9536 46.3882 58.58 46.3882H58.1233V48.6429H58.0818Z" fill="#999999"/>
<path d="M62.3165 45.2608H63.8941V53.027H62.3165V45.2608Z" fill="#999999"/>
<path d="M66.5097 46.43H64.849V45.2608H69.748V46.43H68.0873V53.027H66.5097V46.43Z" fill="#999999"/>
<path d="M72.322 45.2608H74.1488L75.8925 53.027H74.3979L74.1073 51.3569H72.4051L72.0729 53.027H70.5783L72.322 45.2608ZM72.6126 50.1878H73.8997L73.2769 46.7222L72.6126 50.1878Z" fill="#999999"/>
<path d="M80.0856 47.3905C80.0856 46.9729 80.0441 46.6807 79.9196 46.5136C79.795 46.3466 79.6289 46.2631 79.3383 46.2631C79.0892 46.2631 78.8816 46.3466 78.7156 46.5136C78.591 46.6807 78.508 46.8894 78.508 47.2235C78.508 47.474 78.591 47.6828 78.7571 47.8498C78.9232 48.0168 79.1723 48.1838 79.5874 48.3926C80.3763 48.7683 80.916 49.1441 81.2481 49.4782C81.5802 49.8539 81.7048 50.2715 81.7048 50.7725C81.7048 51.5658 81.4972 52.1504 81.082 52.5262C80.6669 52.902 80.0856 53.1107 79.2553 53.1107C78.3834 53.1107 77.7607 52.9437 77.387 52.6097C77.0134 52.2757 76.8473 51.6911 76.8473 50.8978V50.6055H78.4249V50.856C78.4249 51.2318 78.4665 51.5241 78.6325 51.6911C78.7571 51.8581 79.0062 51.9834 79.2968 51.9834C79.5874 51.9834 79.795 51.8999 79.9611 51.7329C80.1272 51.5658 80.1687 51.3153 80.1687 50.9813C80.1687 50.7308 80.0856 50.522 79.9196 50.3132C79.7535 50.1462 79.4629 49.9375 79.0062 49.7287C78.2589 49.3529 77.7192 49.0189 77.4286 48.6848C77.1379 48.3508 76.9719 47.9333 76.9719 47.4322C76.9719 46.6807 77.1795 46.0961 77.5946 45.7621C78.0098 45.4281 78.591 45.2193 79.4214 45.2193C80.2517 45.2193 80.8329 45.3863 81.1651 45.7621C81.4972 46.0961 81.6633 46.6389 81.6217 47.3487V47.7663H80.0856V47.3905Z" fill="#999999"/>
<path d="M11.6246 61.9623V62.171C11.6246 62.9644 11.5001 63.5489 11.1679 63.8829C10.8358 64.217 10.3376 64.384 9.59031 64.384C8.8015 64.384 8.26178 64.2169 7.92965 63.8412C7.59751 63.4654 7.43145 62.8391 7.43145 61.9205V59.7911C7.43145 58.8725 7.59751 58.2462 7.92965 57.8704C8.26178 57.4946 8.8015 57.3276 9.59031 57.3276C10.2546 57.3276 10.7943 57.4946 11.1264 57.8704C11.4586 58.2044 11.5831 58.6637 11.5831 59.3318V59.6658H10.1715V59.457C10.1715 59.0813 10.13 58.8307 10.047 58.6637C9.96396 58.4967 9.7979 58.4132 9.59031 58.4132C9.34122 58.4132 9.13363 58.4967 9.00908 58.7055C8.88453 58.9142 8.84301 59.2483 8.84301 59.7076V61.837C8.84301 62.4215 8.88453 62.8391 9.00908 63.0896C9.13363 63.3401 9.2997 63.4236 9.59031 63.4236C9.7979 63.4236 9.96396 63.3401 10.0885 63.1314C10.2131 62.9226 10.2546 62.6303 10.2546 62.2128V62.004H11.6246V61.9623Z" fill="#999999"/>
<path d="M14.0326 64.3841C13.4514 64.3841 13.0362 64.2171 12.7871 63.9248C12.538 63.6325 12.4134 63.1315 12.4134 62.5052V61.5448C12.4134 60.7515 12.538 60.167 12.8286 59.8747C13.1192 59.5824 13.5344 59.3736 14.1987 59.3736C14.8629 59.3736 15.3611 59.4989 15.6102 59.7912C15.8593 60.0835 15.9839 60.6263 15.9839 61.3778V62.0876H13.7005V62.2547C13.7005 62.7975 13.742 63.1732 13.7835 63.3402C13.8665 63.5073 13.9911 63.5908 14.1987 63.5908C14.4062 63.5908 14.5308 63.5073 14.6138 63.382C14.6969 63.2567 14.7384 63.048 14.6969 62.7557V62.6304H15.9424V62.7557C15.9424 63.2985 15.8178 63.6743 15.4857 63.9666C15.1535 64.2588 14.6553 64.3841 14.0326 64.3841ZM14.6553 61.1273C14.6553 60.7515 14.6138 60.501 14.5308 60.3757C14.4478 60.2505 14.3232 60.167 14.1156 60.167C13.908 60.167 13.7835 60.2505 13.7005 60.4175C13.6174 60.5845 13.5759 60.8768 13.5759 61.3361V61.4196H14.6553V61.1273Z" fill="#999999"/>
<path d="M16.8142 59.4991H18.0182V60.1254C18.0597 60.0419 18.1012 59.9584 18.1843 59.8748C18.3918 59.5826 18.807 59.4156 19.3052 59.4156V60.5011C19.2222 60.5011 19.1391 60.4594 19.0146 60.5011C18.6409 60.5011 18.3918 60.5847 18.2673 60.7517C18.1427 60.9187 18.0597 61.2527 18.0597 61.6702V64.3007H16.8142V59.4991Z" fill="#999999"/>
<path d="M22.4605 64.3425C22.2114 64.3842 21.9208 64.3842 21.6302 64.3842C21.215 64.3842 20.9244 64.259 20.7168 64.0084C20.5092 63.7579 20.4262 63.4239 20.4262 62.9228V60.2924H19.7619V59.4573H20.4262V58.7057L21.6717 58.1629V59.4573H22.4605V60.2924H21.6717V62.9228C21.6717 63.1733 21.7132 63.2986 21.7547 63.3821C21.7962 63.4656 21.9208 63.5074 22.0868 63.5074C22.2114 63.5074 22.3775 63.5074 22.4605 63.4656V64.3425Z" fill="#999999"/>
<path d="M23.2493 57.453H24.4948V58.5803H23.2493V57.453ZM23.2493 59.4989H24.4948V64.3006H23.2493V59.4989Z" fill="#999999"/>
<path d="M27.1934 60.3339V64.3005H25.9479V60.3339H25.2836V59.4988H25.9479V58.7055C25.9479 58.2462 26.0724 57.8704 26.28 57.6616C26.4876 57.4529 26.8197 57.3276 27.2764 57.3276C27.5255 57.3276 27.7331 57.3276 27.9407 57.3694V58.2044H27.7746C27.567 58.2044 27.4425 58.2462 27.3595 58.3297C27.2764 58.4132 27.2349 58.5385 27.2349 58.7472V59.5406H27.9407V60.3756H27.1934V60.3339Z" fill="#999999"/>
<path d="M28.7295 57.453H29.975V58.5803H28.7295V57.453ZM28.7295 59.4989H29.975V64.3006H28.7295V59.4989Z" fill="#999999"/>
<path d="M34.2512 62.5053V62.7976C34.2512 63.3404 34.1267 63.7579 33.836 64.0085C33.5454 64.259 33.1303 64.426 32.5905 64.426C32.0093 64.426 31.5941 64.3007 31.345 64.0085C31.0959 63.7162 30.9714 63.2569 30.9714 62.5888V61.2527C30.9714 60.6264 31.0959 60.1254 31.345 59.8331C31.5941 59.5408 32.0093 59.4156 32.5905 59.4156C33.1718 59.4156 33.5869 59.5408 33.836 59.8331C34.0851 60.0836 34.2097 60.5011 34.2097 61.0439V61.211H32.9642V61.0857C32.9642 60.7934 32.9642 60.5847 32.8812 60.4594C32.7981 60.3341 32.7151 60.2506 32.5905 60.2506C32.4245 60.2506 32.3414 60.3341 32.2584 60.4594C32.1754 60.5847 32.1754 60.8352 32.1754 61.1692V62.5053C32.1754 62.9646 32.2169 63.2569 32.2584 63.3821C32.2999 63.5074 32.4245 63.5909 32.5905 63.5909C32.7566 63.5909 32.8396 63.5492 32.9227 63.4239C32.9642 63.2986 33.0057 63.0899 33.0057 62.8394V62.5471H34.2512V62.5053Z" fill="#999999"/>
<path d="M36.161 64.384C35.7874 64.384 35.4967 64.2588 35.2892 64.05C35.0816 63.8412 34.9985 63.5072 34.9985 63.1314V62.8391C34.9985 62.2546 35.1231 61.8788 35.4137 61.6283C35.7043 61.3778 36.161 61.2943 36.8668 61.2943H37.2404V60.7097C37.2404 60.5427 37.1989 60.3757 37.1574 60.2922C37.0744 60.2087 36.9913 60.1669 36.8668 60.1669C36.7007 60.1669 36.5762 60.2087 36.4931 60.3339C36.4101 60.4592 36.3686 60.5845 36.4101 60.7932V60.9185H35.1646V60.7932C35.1646 60.3339 35.2892 59.9999 35.5798 59.7911C35.8704 59.5824 36.2856 59.4571 36.8668 59.4571C37.448 59.4571 37.8632 59.5824 38.1538 59.8329C38.4444 60.0834 38.569 60.4592 38.569 60.9602V64.384H37.365V64.0082L37.3235 64.0918C36.9913 64.2588 36.6177 64.384 36.161 64.384ZM37.0744 62.0041C36.7838 62.0041 36.5762 62.0876 36.4516 62.2128C36.3271 62.3381 36.2856 62.5469 36.2856 62.8809V63.1732C36.2856 63.3402 36.3271 63.4237 36.4101 63.5072C36.4931 63.5907 36.5762 63.6325 36.7422 63.6325C36.9083 63.6325 37.0744 63.549 37.1574 63.382C37.2404 63.2149 37.282 62.9644 37.282 62.6721V62.0041H37.0744Z" fill="#999999"/>
<path d="M41.9318 64.3425C41.6827 64.3842 41.3921 64.3842 41.1015 64.3842C40.6863 64.3842 40.3957 64.259 40.1881 64.0084C39.9805 63.7579 39.8975 63.4239 39.8975 62.9228V60.2924H39.2332V59.4573H39.8975V58.7057L41.143 58.1629V59.4573H41.9318V60.2924H41.143V62.9228C41.143 63.1733 41.1845 63.2986 41.226 63.3821C41.2675 63.4656 41.3921 63.5074 41.5581 63.5074C41.6827 63.5074 41.8488 63.5074 41.9318 63.4656V64.3425Z" fill="#999999"/>
<path d="M42.7206 57.453H43.9661V58.5803H42.7206V57.453ZM42.7206 59.4989H43.9661V64.3006H42.7206V59.4989Z" fill="#999999"/>
<path d="M45.3777 63.9666C45.0871 63.6743 44.9625 63.215 44.9625 62.5469V61.2108C44.9625 60.5845 45.0871 60.0835 45.3777 59.7912C45.6683 59.4989 46.0835 59.3736 46.7062 59.3736C47.329 59.3736 47.7857 59.4989 48.0348 59.7912C48.3254 60.0835 48.4499 60.5428 48.4499 61.2108V62.5469C48.4499 63.1732 48.3254 63.6743 48.0348 63.9666C47.7441 64.2588 47.329 64.3841 46.7062 64.3841C46.0835 64.3841 45.6683 64.2588 45.3777 63.9666ZM47.1214 63.4238C47.2044 63.2567 47.2044 62.9645 47.2044 62.4634V61.1273C47.2044 60.7515 47.1629 60.501 47.0799 60.3757C46.9968 60.2505 46.8723 60.167 46.7062 60.167C46.5402 60.167 46.3741 60.2505 46.3326 60.3757C46.2495 60.501 46.208 60.7515 46.208 61.1273V62.4634C46.208 62.9227 46.2495 63.2567 46.291 63.4238C46.3741 63.5908 46.4986 63.6743 46.7062 63.6743C46.9138 63.6743 47.0799 63.549 47.1214 63.4238Z" fill="#999999"/>
<path d="M50.7334 59.4991V59.9584C51.024 59.5826 51.3976 59.4156 51.8958 59.4156C52.2695 59.4156 52.5186 59.5408 52.6846 59.7496C52.8507 59.9584 52.9337 60.2924 52.9337 60.7099V64.3425H51.6882V60.8352C51.6882 60.6264 51.6467 60.5011 51.5637 60.4176C51.4807 60.3341 51.3976 60.2924 51.2316 60.2924C51.024 60.2924 50.8579 60.3759 50.7749 60.5429C50.6918 60.7099 50.6503 61.0022 50.6503 61.4197V64.3425H49.4048V59.4991H50.7334Z" fill="#999999"/>
</svg>
