<svg width="80" height="76" viewBox="0 0 80 76" fill="none" xmlns="http://www.w3.org/2000/svg">
<path d="M42.2226 8.68041V8.78682C40.9719 10.4591 39.8116 12.1617 38.591 13.8492L32.8046 21.9367L12.944 49.6504C11.7536 51.2162 10.6837 52.8429 9.46314 54.4239L9.38779 54.3479C8.42339 51.7027 7.70009 48.9511 7.41379 46.0171C9.10149 43.5847 10.8344 41.198 12.5522 38.7808L12.5221 38.6744H12.6276L21.5633 26.1478L33.2416 9.86618C33.4224 9.71416 33.4827 9.36451 33.769 9.34931C36.4061 8.74122 39.3445 8.49798 42.2226 8.68041Z" fill="#999999"/>
<path d="M51.4748 10.5199V10.6263L49.32 13.6363L43.8349 21.2374L37.1143 30.6172L28.4648 42.6422C28.3292 42.931 28.0278 43.1438 27.9525 43.4327C27.1689 44.4056 26.4155 45.4546 25.7223 46.4731C24.3209 48.3582 23.025 50.3193 21.5935 52.2043C20.7948 52.2043 20.0113 52.3412 19.3934 52.7516C18.3236 53.7398 17.2085 54.6671 16.018 55.3664C15.0536 55.8073 14.044 56.1721 12.9742 56.3546C12.0851 56.5066 11.2413 56.7194 10.3221 56.6738V56.5978L15.3098 49.6048L21.9099 40.4378C24.0648 37.5038 26.1442 34.5242 28.2991 31.5597L43.3527 10.5199L44.5432 8.89322C46.9542 9.18206 49.2597 9.72934 51.4748 10.5199Z" fill="#999999"/>
<path d="M30.6649 10.155L30.4087 10.5959L23.7182 19.8996L20.4482 24.4603L16.5304 29.9635L12.1152 36.1204L7.26309 42.931H7.20282C7.0672 34.7522 9.64395 27.5312 14.4207 21.3135C16.3646 18.8507 18.866 16.4944 21.3825 14.7157C21.4126 14.5637 21.5633 14.6397 21.6387 14.5637C24.4716 12.633 27.4552 11.0976 30.6649 10.155Z" fill="#999999"/>
<path d="M57.3667 13.2715C58.1201 13.7124 58.8736 14.1837 59.5667 14.7157L59.5064 14.8678L55.6639 20.1581L49.6665 28.5346C48.4912 30.1308 47.3008 31.7574 46.1857 33.3233L32.7594 51.946C31.358 53.679 29.4594 55.1689 27.0936 54.6368C25.7374 54.4544 24.6524 53.5878 23.5826 52.7213V52.6149L29.5799 44.2081L49.7118 16.3424C50.9323 14.6701 52.0775 12.9371 53.3433 11.28C54.7447 11.7969 56.0708 12.5114 57.3667 13.2715Z" fill="#999999"/>
<path d="M65.1572 19.6108C65.5791 20.0365 65.9106 20.4773 66.2723 20.9182V21.0246C63.6805 24.7644 60.9982 28.4433 58.3009 32.1526L57.3214 33.5208L48.2802 46.0475C46.1254 48.9207 44.1212 51.8851 41.9664 54.7431C41.1828 54.7431 40.565 54.7887 39.8116 54.7431L39.9472 54.4999L46.5473 45.2874C46.6528 45.1505 46.8336 45.0441 46.8637 44.8465L65.1271 19.626H65.1572V19.6108Z" fill="#999999"/>
<path d="M70.4464 27.3791C70.7025 27.9872 71.0642 28.5649 71.1998 29.1882C69.1505 32.1222 66.9956 34.9802 64.9161 37.8838L55.7995 50.5625C54.8351 51.9307 53.9009 53.2533 52.8913 54.5911C52.1378 54.5911 51.3091 54.6215 50.5858 54.5911C51.6707 53.0405 52.7858 51.5202 53.8858 49.9848L65.1572 34.4177L69.3162 28.6561L70.3258 27.2727L70.4464 27.3791Z" fill="#999999"/>
<path d="M73.5656 37.6559C73.6711 38.5528 73.7464 39.465 73.7916 40.3467L73.5807 40.7115L69.3162 46.5492L63.6353 54.4544L63.5298 54.4848C62.8065 54.4848 62.0229 54.5304 61.3147 54.5152V54.4392L72.2245 39.3281L73.4902 37.5799L73.5656 37.6559Z" fill="#999999"/>
<path d="M22.2264 53.8767C22.4072 54.1959 22.362 54.6064 22.2565 54.956C22.0757 55.3209 21.6537 55.6401 21.2469 55.6857C20.7798 55.6857 20.3428 55.4729 20.1017 55.0625C19.966 54.7736 19.8907 54.3632 20.0565 54.0439C20.2071 53.6486 20.5989 53.3142 21.0359 53.2534C21.5332 53.2078 22.0003 53.451 22.2264 53.8767Z" fill="#999999"/>
<path d="M70.16 57.8292C66.0613 66.16 57.668 72.8186 49.0487 74.9165H49.0186L50.4501 72.849L61.1941 57.89L61.4503 57.8292L69.6025 57.7988L70.16 57.8292Z" fill="#999999"/>
<path d="M59.0242 57.9053C58.9941 57.9661 58.9187 57.9813 58.8735 57.9813L57.1105 60.4136L52.0474 67.4675C50.0432 70.1126 48.235 72.849 46.2007 75.4942C43.5034 75.9959 40.5951 76.1175 37.717 75.8895V75.8135L45.5377 64.9591L50.6309 57.9205C53.2981 57.8444 56.1913 57.8901 58.8886 57.8596C58.8886 57.8292 58.9941 57.8292 59.0242 57.9053Z" fill="#999999"/>
<path d="M48.2802 58.042L45.5075 61.8881L38.1841 72.0736C37.3252 73.2594 36.4964 74.4908 35.5923 75.6309C33.2567 75.2965 30.9963 74.7644 28.9018 73.9283L28.8415 73.8675L30.5292 71.4503L34.9444 65.263L35.7731 64.1076L40.1129 57.9811L40.339 57.9355L47.3007 57.9051L48.2802 57.9355V58.042Z" fill="#999999"/>
<path d="M37.702 58.2396L34.2512 63.0587L27.0634 73.1682C25.1346 72.3321 23.2962 71.3439 21.5784 70.0517L21.6085 69.9149C24.4113 65.9623 27.3196 61.9793 30.1525 58.0268L36.8581 57.9508L37.8376 58.0116L37.702 58.2396Z" fill="#999999"/>
<path d="M27.7415 58.118V58.194L22.8592 64.9742C21.8948 66.2816 21.0209 67.6194 20.0263 68.8812C18.3085 67.5738 16.6208 65.9776 15.2194 64.2445L15.5509 63.7429L19.5441 58.2092L19.6948 58.1028C22.4072 58.1332 25.1196 57.9812 27.7415 58.118Z" fill="#999999"/>
<path d="M17.2989 58.1332C16.229 59.6838 15.1441 61.2041 14.029 62.7091H13.9687C12.8988 61.2497 11.9194 59.7446 11.1358 58.1484C12.1303 58.0724 12.9591 58.0876 13.9687 58.0724C15.0386 58.0876 16.1989 58.118 17.2989 58.1332Z" fill="#999999"/>
<path d="M0 30.7239L0.36165 29.6902L6.69052 28.3524L1.52194 26.4673L1.82332 25.6312L8.22753 27.9723L7.86588 28.9453L1.53701 30.3439L6.70559 32.2137L6.40422 33.0499L0 30.7239Z" fill="#999999"/>
<path d="M10.1262 21.5874C9.82479 20.9641 9.34259 20.4624 8.69463 20.0519C8.01654 19.6263 7.35351 19.4743 6.72063 19.5655C6.08774 19.6719 5.5754 20.0367 5.19869 20.66C4.82197 21.2681 4.73155 21.8914 4.91238 22.5299C5.0932 23.1684 5.5754 23.7309 6.38912 24.2326C7.03707 24.6278 7.66996 24.8102 8.31791 24.7494C8.96587 24.6886 9.50835 24.2934 9.96041 23.5637C10.3823 22.8644 10.4426 22.1955 10.1262 21.5874ZM6.85625 18.5925C7.60968 18.5165 8.37819 18.7294 9.17683 19.231C10.0358 19.7631 10.6234 20.432 10.9248 21.2377C11.2865 22.1803 11.1659 23.1228 10.5782 24.0957C10.0358 24.9927 9.29738 25.5247 8.39326 25.6616C7.54941 25.768 6.69049 25.5552 5.8165 25.0079C5.03293 24.5214 4.47539 23.9133 4.15894 23.1684C3.75209 22.2259 3.8425 21.2529 4.44525 20.2648C5.10827 19.231 5.89185 18.6685 6.85625 18.5925Z" fill="#999999"/>
<path d="M12.3412 15.4C12.6276 15.096 12.7933 14.7767 12.8385 14.4879C12.8837 14.1838 12.733 13.8798 12.4015 13.5758C12.0399 13.2413 11.6933 13.1349 11.3316 13.2717C11.1357 13.3477 10.9399 13.4845 10.7289 13.7126L9.23709 15.324L10.9399 16.9354L12.3412 15.4ZM8.01652 15.4608L10.1261 13.1805C10.4727 12.8004 10.8193 12.542 11.1508 12.4052C11.7988 12.1467 12.4015 12.2836 12.9741 12.8156C13.2755 13.0893 13.4563 13.3933 13.5317 13.6974C13.607 14.0014 13.592 14.3207 13.5015 14.6551C13.7577 14.5335 13.9988 14.4879 14.2248 14.5031C14.4509 14.5183 14.707 14.6703 15.0084 14.9288L15.7016 15.5368C15.8975 15.7041 16.0482 15.8257 16.1687 15.8865C16.3646 15.9929 16.5304 16.0233 16.681 15.9473L16.7865 16.0537L16.018 16.8898C15.9577 16.8746 15.8824 16.8442 15.8071 16.7834C15.7317 16.7378 15.581 16.6162 15.3851 16.449L14.5111 15.7041C14.1796 15.4152 13.8481 15.324 13.5317 15.4456C13.3509 15.5064 13.1399 15.6889 12.8837 15.9473L11.4974 17.4523L13.6372 19.459L13.0043 20.1431L8.01652 15.4608Z" fill="#999999"/>
<path d="M19.5743 12.9372C19.8304 12.7548 20.0113 12.5876 20.1318 12.4203C20.3428 12.1163 20.4482 11.7666 20.4332 11.341C20.4181 11.0065 20.3126 10.6417 20.1318 10.2464C20.0113 10.0032 19.9058 9.80554 19.7702 9.62312C19.288 8.92381 18.7756 8.48295 18.2331 8.28532C17.6907 8.08769 17.1331 8.20931 16.5304 8.63497L15.2194 9.56231L18.2482 13.8645L19.5743 12.9372ZM14.0139 9.47109L16.229 7.87486C16.9824 7.34278 17.766 7.19076 18.5647 7.434C19.288 7.66203 19.9058 8.1637 20.4482 8.92381C20.8702 9.5167 21.1414 10.14 21.262 10.7785C21.4729 11.9035 21.1113 12.8004 20.177 13.4693L17.9619 15.0503L14.0139 9.47109Z" fill="#999999"/>
<path d="M20.7648 5.04739L21.5935 4.62172L24.7278 10.7026L23.9141 11.1435L20.7648 5.04739Z" fill="#999999"/>
<path d="M28.5552 2.29548C29.1429 2.56912 29.5649 2.96438 29.806 3.49646L28.9621 3.8005C28.721 3.42045 28.4196 3.16201 28.0429 3.00999C27.6813 2.87317 27.2443 2.88837 26.7319 3.0708C26.1141 3.29883 25.6922 3.69409 25.4662 4.28697C25.2401 4.87986 25.3004 5.62477 25.6168 6.55211C25.8881 7.31222 26.2799 7.8595 26.7922 8.20915C27.3045 8.5588 27.8922 8.60441 28.5854 8.36117C29.2183 8.13314 29.6101 7.72268 29.7607 7.09939C29.8361 6.78014 29.8512 6.38488 29.7909 5.92881L30.6347 5.62477C30.8005 6.32407 30.7553 6.99297 30.4991 7.60106C30.1977 8.34597 29.6101 8.86284 28.7511 9.16689C28.0128 9.42533 27.3196 9.42533 26.6566 9.15169C25.7826 8.78683 25.1196 7.98112 24.6826 6.71933C24.3511 5.76159 24.3209 4.89506 24.5922 4.10455C24.8935 3.25322 25.5114 2.64513 26.4456 2.31068C27.2593 2.02184 27.9676 2.02184 28.5552 2.29548Z" fill="#999999"/>
<path d="M35.0198 0.364853L39.9473 0L40.0076 0.836122L35.9691 1.14017L36.1349 3.22287L39.8569 2.93403L39.9171 3.72455L36.1952 4.01339L36.3609 6.33933L40.4596 6.02008L40.5199 6.841L35.5321 7.22106L35.0198 0.364853Z" fill="#999999"/>
<path d="M47.0747 1.03362C47.4967 1.5353 47.7076 2.08258 47.6926 2.67546L46.8035 2.58425C46.7432 2.12818 46.5925 1.76333 46.3213 1.47449C46.0501 1.18565 45.6432 1.01842 45.1158 0.957612C44.4678 0.881601 43.9103 1.06403 43.4582 1.50489C43.0062 1.93055 42.7349 2.64506 42.6295 3.618C42.539 4.42372 42.6596 5.09262 42.976 5.62469C43.2925 6.15677 43.8048 6.46082 44.5281 6.55203C45.1911 6.62804 45.7186 6.41521 46.1254 5.92874C46.3364 5.6703 46.5172 5.32065 46.6528 4.87979L47.5419 4.971C47.3912 5.6855 47.0597 6.26319 46.5624 6.68885C45.9747 7.22093 45.2213 7.43376 44.3172 7.34255C43.5336 7.26653 42.9158 6.94729 42.4336 6.41521C41.8007 5.70071 41.5596 4.68216 41.6952 3.35956C41.8007 2.35622 42.1473 1.5505 42.7349 0.957612C43.3678 0.319118 44.1815 0.0454784 45.1761 0.151894C46.0199 0.227905 46.6679 0.516747 47.0747 1.03362Z" fill="#999999"/>
<path d="M53.3283 7.67694C53.8557 7.22087 54.2173 6.62798 54.4434 5.91348C54.6845 5.13816 54.6694 4.45406 54.4132 3.86118C54.1571 3.26829 53.6899 2.85783 52.9968 2.6298C52.3187 2.41697 51.7009 2.47777 51.1283 2.81222C50.5556 3.14667 50.1337 3.76996 49.8474 4.66689C49.6214 5.3966 49.6214 6.0655 49.8173 6.67359C50.0282 7.29688 50.5406 7.72254 51.3543 7.98098C52.168 8.22421 52.816 8.1178 53.3283 7.67694ZM55.4078 3.73956C55.6639 4.45406 55.6489 5.25978 55.3626 6.17191C55.0612 7.14486 54.5639 7.88977 53.8708 8.37624C53.0571 8.95392 52.1077 9.07554 51.0378 8.74109C50.0433 8.42184 49.3501 7.84416 48.9885 6.99284C48.672 6.18712 48.672 5.29019 48.9734 4.31724C49.2447 3.43551 49.6967 2.73621 50.3296 2.24974C51.1433 1.61125 52.0927 1.47443 53.1927 1.82408C54.353 2.17373 55.0913 2.82743 55.4078 3.73956Z" fill="#999999"/>
<path d="M58.4517 4.02875L59.2654 4.45441L56.4777 9.8208L59.5065 11.417L59.1298 12.1467L55.2872 10.1096L58.4517 4.02875Z" fill="#999999"/>
<path d="M65.0518 13.0738L66.0916 10.0334L63.3641 11.736L65.0518 13.0738ZM66.3477 8.9388L67.1614 9.59249L64.871 16.5247L64.0874 15.8862L64.7957 13.8339L62.7011 12.1617L60.8627 13.317L60.1244 12.7242L66.3477 8.9388Z" fill="#999999"/>
<path d="M70.4765 16.9202C70.7327 17.2242 70.9738 17.4218 71.1998 17.5131C71.5464 17.6651 71.893 17.5891 72.2395 17.3002C72.571 17.0114 72.6916 16.6769 72.571 16.2969C72.4957 16.0841 72.3299 15.8256 72.0738 15.5064L70.9888 14.2294L69.3915 15.6128L70.4765 16.9202ZM68.2915 19.2157C68.6682 19.6566 69.06 19.8542 69.4669 19.8238C69.7231 19.8086 69.9641 19.7022 70.1902 19.5046C70.5669 19.1853 70.6724 18.79 70.5217 18.334C70.4464 18.0907 70.2806 17.8171 70.0244 17.5131L68.8189 16.0993L66.9956 17.6651L68.2915 19.2157ZM70.9738 13.0284L72.8875 15.2783C73.4149 15.8864 73.5957 16.4793 73.4601 17.057C73.3697 17.3914 73.1889 17.6803 72.9176 17.9235C72.5861 18.2124 72.2395 18.3492 71.8779 18.334C71.682 18.334 71.471 18.2732 71.2149 18.182C71.3354 18.5316 71.3957 18.8357 71.3806 19.0789C71.3505 19.5046 71.1395 19.8998 70.7477 20.2343C70.4162 20.5231 70.0244 20.6751 69.5724 20.7055C68.8943 20.7359 68.2765 20.4015 67.6888 19.7174L65.8052 17.4979L70.9738 13.0284Z" fill="#999999"/>
<path d="M75.8259 19.1548L78.3123 23.4723L77.604 23.8979L75.5698 20.371L73.7766 21.42L75.6602 24.6732L74.9821 25.0685L73.0985 21.8152L71.0943 22.9858L73.1738 26.5735L72.4656 26.984L69.9491 22.6209L75.8259 19.1548Z" fill="#999999"/>
<path d="M79.6835 26.6038L80 27.4855L74.3341 29.4922L75.4794 32.7455L74.7109 33.0191L73.2643 28.8841L79.6835 26.6038Z" fill="#999999"/>
</svg>
